%TF.GenerationSoftware,KiCad,Pcbnew,5.1.10-88a1d61d58~90~ubuntu21.04.1*%
%TF.CreationDate,2021-10-21T11:32:03+02:00*%
%TF.ProjectId,panel-blank-10cm,70616e65-6c2d-4626-9c61-6e6b2d313063,rev?*%
%TF.SameCoordinates,Original*%
%TF.FileFunction,Copper,L2,Bot*%
%TF.FilePolarity,Positive*%
%FSLAX46Y46*%
G04 Gerber Fmt 4.6, Leading zero omitted, Abs format (unit mm)*
G04 Created by KiCad (PCBNEW 5.1.10-88a1d61d58~90~ubuntu21.04.1) date 2021-10-21 11:32:03*
%MOMM*%
%LPD*%
G01*
G04 APERTURE LIST*
%TA.AperFunction,ComponentPad*%
%ADD10O,6.800000X4.000000*%
%TD*%
%TA.AperFunction,Conductor*%
%ADD11C,0.254000*%
%TD*%
%TA.AperFunction,Conductor*%
%ADD12C,0.100000*%
%TD*%
G04 APERTURE END LIST*
D10*
%TO.P,REF\u002A\u002A,1*%
%TO.N,GND*%
X135600000Y-247000000D03*
X135600000Y-53000000D03*
%TD*%
%TO.P,REF\u002A\u002A,1*%
%TO.N,GND*%
X44400000Y-53000000D03*
X44400000Y-247000000D03*
%TD*%
D11*
%TO.N,GND*%
X132630475Y-50879635D02*
X132246970Y-51226576D01*
X131938519Y-51641669D01*
X131716975Y-52108962D01*
X131620333Y-52462838D01*
X131727009Y-52873000D01*
X135473000Y-52873000D01*
X135473000Y-52853000D01*
X135727000Y-52853000D01*
X135727000Y-52873000D01*
X135747000Y-52873000D01*
X135747000Y-53127000D01*
X135727000Y-53127000D01*
X135727000Y-55635000D01*
X137127000Y-55635000D01*
X137638623Y-55559593D01*
X138125704Y-55385822D01*
X138569525Y-55120365D01*
X138953030Y-54773424D01*
X139261481Y-54358331D01*
X139340000Y-54192714D01*
X139340001Y-245807288D01*
X139261481Y-245641669D01*
X138953030Y-245226576D01*
X138569525Y-244879635D01*
X138125704Y-244614178D01*
X137638623Y-244440407D01*
X137127000Y-244365000D01*
X135727000Y-244365000D01*
X135727000Y-246873000D01*
X135747000Y-246873000D01*
X135747000Y-247127000D01*
X135727000Y-247127000D01*
X135727000Y-247147000D01*
X135473000Y-247147000D01*
X135473000Y-247127000D01*
X131727009Y-247127000D01*
X131620333Y-247537162D01*
X131716975Y-247891038D01*
X131938519Y-248358331D01*
X132246970Y-248773424D01*
X132630475Y-249120365D01*
X132997686Y-249340000D01*
X47002314Y-249340000D01*
X47369525Y-249120365D01*
X47753030Y-248773424D01*
X48061481Y-248358331D01*
X48283025Y-247891038D01*
X48379667Y-247537162D01*
X48272991Y-247127000D01*
X44527000Y-247127000D01*
X44527000Y-247147000D01*
X44273000Y-247147000D01*
X44273000Y-247127000D01*
X44253000Y-247127000D01*
X44253000Y-246873000D01*
X44273000Y-246873000D01*
X44273000Y-244365000D01*
X44527000Y-244365000D01*
X44527000Y-246873000D01*
X48272991Y-246873000D01*
X48379667Y-246462838D01*
X131620333Y-246462838D01*
X131727009Y-246873000D01*
X135473000Y-246873000D01*
X135473000Y-244365000D01*
X134073000Y-244365000D01*
X133561377Y-244440407D01*
X133074296Y-244614178D01*
X132630475Y-244879635D01*
X132246970Y-245226576D01*
X131938519Y-245641669D01*
X131716975Y-246108962D01*
X131620333Y-246462838D01*
X48379667Y-246462838D01*
X48283025Y-246108962D01*
X48061481Y-245641669D01*
X47753030Y-245226576D01*
X47369525Y-244879635D01*
X46925704Y-244614178D01*
X46438623Y-244440407D01*
X45927000Y-244365000D01*
X44527000Y-244365000D01*
X44273000Y-244365000D01*
X42873000Y-244365000D01*
X42361377Y-244440407D01*
X41874296Y-244614178D01*
X41430475Y-244879635D01*
X41046970Y-245226576D01*
X40738519Y-245641669D01*
X40660000Y-245807286D01*
X40660000Y-54192714D01*
X40738519Y-54358331D01*
X41046970Y-54773424D01*
X41430475Y-55120365D01*
X41874296Y-55385822D01*
X42361377Y-55559593D01*
X42873000Y-55635000D01*
X44273000Y-55635000D01*
X44273000Y-53127000D01*
X44527000Y-53127000D01*
X44527000Y-55635000D01*
X45927000Y-55635000D01*
X46438623Y-55559593D01*
X46925704Y-55385822D01*
X47369525Y-55120365D01*
X47753030Y-54773424D01*
X48061481Y-54358331D01*
X48283025Y-53891038D01*
X48379667Y-53537162D01*
X131620333Y-53537162D01*
X131716975Y-53891038D01*
X131938519Y-54358331D01*
X132246970Y-54773424D01*
X132630475Y-55120365D01*
X133074296Y-55385822D01*
X133561377Y-55559593D01*
X134073000Y-55635000D01*
X135473000Y-55635000D01*
X135473000Y-53127000D01*
X131727009Y-53127000D01*
X131620333Y-53537162D01*
X48379667Y-53537162D01*
X48272991Y-53127000D01*
X44527000Y-53127000D01*
X44273000Y-53127000D01*
X44253000Y-53127000D01*
X44253000Y-52873000D01*
X44273000Y-52873000D01*
X44273000Y-52853000D01*
X44527000Y-52853000D01*
X44527000Y-52873000D01*
X48272991Y-52873000D01*
X48379667Y-52462838D01*
X48283025Y-52108962D01*
X48061481Y-51641669D01*
X47753030Y-51226576D01*
X47369525Y-50879635D01*
X47002314Y-50660000D01*
X132997686Y-50660000D01*
X132630475Y-50879635D01*
%TA.AperFunction,Conductor*%
D12*
G36*
X132630475Y-50879635D02*
G01*
X132246970Y-51226576D01*
X131938519Y-51641669D01*
X131716975Y-52108962D01*
X131620333Y-52462838D01*
X131727009Y-52873000D01*
X135473000Y-52873000D01*
X135473000Y-52853000D01*
X135727000Y-52853000D01*
X135727000Y-52873000D01*
X135747000Y-52873000D01*
X135747000Y-53127000D01*
X135727000Y-53127000D01*
X135727000Y-55635000D01*
X137127000Y-55635000D01*
X137638623Y-55559593D01*
X138125704Y-55385822D01*
X138569525Y-55120365D01*
X138953030Y-54773424D01*
X139261481Y-54358331D01*
X139340000Y-54192714D01*
X139340001Y-245807288D01*
X139261481Y-245641669D01*
X138953030Y-245226576D01*
X138569525Y-244879635D01*
X138125704Y-244614178D01*
X137638623Y-244440407D01*
X137127000Y-244365000D01*
X135727000Y-244365000D01*
X135727000Y-246873000D01*
X135747000Y-246873000D01*
X135747000Y-247127000D01*
X135727000Y-247127000D01*
X135727000Y-247147000D01*
X135473000Y-247147000D01*
X135473000Y-247127000D01*
X131727009Y-247127000D01*
X131620333Y-247537162D01*
X131716975Y-247891038D01*
X131938519Y-248358331D01*
X132246970Y-248773424D01*
X132630475Y-249120365D01*
X132997686Y-249340000D01*
X47002314Y-249340000D01*
X47369525Y-249120365D01*
X47753030Y-248773424D01*
X48061481Y-248358331D01*
X48283025Y-247891038D01*
X48379667Y-247537162D01*
X48272991Y-247127000D01*
X44527000Y-247127000D01*
X44527000Y-247147000D01*
X44273000Y-247147000D01*
X44273000Y-247127000D01*
X44253000Y-247127000D01*
X44253000Y-246873000D01*
X44273000Y-246873000D01*
X44273000Y-244365000D01*
X44527000Y-244365000D01*
X44527000Y-246873000D01*
X48272991Y-246873000D01*
X48379667Y-246462838D01*
X131620333Y-246462838D01*
X131727009Y-246873000D01*
X135473000Y-246873000D01*
X135473000Y-244365000D01*
X134073000Y-244365000D01*
X133561377Y-244440407D01*
X133074296Y-244614178D01*
X132630475Y-244879635D01*
X132246970Y-245226576D01*
X131938519Y-245641669D01*
X131716975Y-246108962D01*
X131620333Y-246462838D01*
X48379667Y-246462838D01*
X48283025Y-246108962D01*
X48061481Y-245641669D01*
X47753030Y-245226576D01*
X47369525Y-244879635D01*
X46925704Y-244614178D01*
X46438623Y-244440407D01*
X45927000Y-244365000D01*
X44527000Y-244365000D01*
X44273000Y-244365000D01*
X42873000Y-244365000D01*
X42361377Y-244440407D01*
X41874296Y-244614178D01*
X41430475Y-244879635D01*
X41046970Y-245226576D01*
X40738519Y-245641669D01*
X40660000Y-245807286D01*
X40660000Y-54192714D01*
X40738519Y-54358331D01*
X41046970Y-54773424D01*
X41430475Y-55120365D01*
X41874296Y-55385822D01*
X42361377Y-55559593D01*
X42873000Y-55635000D01*
X44273000Y-55635000D01*
X44273000Y-53127000D01*
X44527000Y-53127000D01*
X44527000Y-55635000D01*
X45927000Y-55635000D01*
X46438623Y-55559593D01*
X46925704Y-55385822D01*
X47369525Y-55120365D01*
X47753030Y-54773424D01*
X48061481Y-54358331D01*
X48283025Y-53891038D01*
X48379667Y-53537162D01*
X131620333Y-53537162D01*
X131716975Y-53891038D01*
X131938519Y-54358331D01*
X132246970Y-54773424D01*
X132630475Y-55120365D01*
X133074296Y-55385822D01*
X133561377Y-55559593D01*
X134073000Y-55635000D01*
X135473000Y-55635000D01*
X135473000Y-53127000D01*
X131727009Y-53127000D01*
X131620333Y-53537162D01*
X48379667Y-53537162D01*
X48272991Y-53127000D01*
X44527000Y-53127000D01*
X44273000Y-53127000D01*
X44253000Y-53127000D01*
X44253000Y-52873000D01*
X44273000Y-52873000D01*
X44273000Y-52853000D01*
X44527000Y-52853000D01*
X44527000Y-52873000D01*
X48272991Y-52873000D01*
X48379667Y-52462838D01*
X48283025Y-52108962D01*
X48061481Y-51641669D01*
X47753030Y-51226576D01*
X47369525Y-50879635D01*
X47002314Y-50660000D01*
X132997686Y-50660000D01*
X132630475Y-50879635D01*
G37*
%TD.AperFunction*%
%TD*%
M02*
