%TF.GenerationSoftware,KiCad,Pcbnew,5.1.10-88a1d61d58~90~ubuntu21.04.1*%
%TF.CreationDate,2021-10-21T11:32:03+02:00*%
%TF.ProjectId,panel-blank-10cm,70616e65-6c2d-4626-9c61-6e6b2d313063,rev?*%
%TF.SameCoordinates,Original*%
%TF.FileFunction,Soldermask,Top*%
%TF.FilePolarity,Negative*%
%FSLAX46Y46*%
G04 Gerber Fmt 4.6, Leading zero omitted, Abs format (unit mm)*
G04 Created by KiCad (PCBNEW 5.1.10-88a1d61d58~90~ubuntu21.04.1) date 2021-10-21 11:32:03*
%MOMM*%
%LPD*%
G01*
G04 APERTURE LIST*
%ADD10C,0.010000*%
%ADD11O,6.800000X4.000000*%
G04 APERTURE END LIST*
D10*
%TO.C,G\u002A\u002A\u002A*%
G36*
X111891219Y-235596785D02*
G01*
X111920317Y-235612789D01*
X111988562Y-235656465D01*
X112088879Y-235723096D01*
X112214192Y-235807958D01*
X112357425Y-235906334D01*
X112414156Y-235945636D01*
X112913757Y-236292556D01*
X112919899Y-237562556D01*
X113362672Y-237873758D01*
X113805445Y-238184959D01*
X113812762Y-239567715D01*
X113820080Y-240950471D01*
X113315121Y-241309680D01*
X113165851Y-241414550D01*
X113030548Y-241507119D01*
X112916400Y-241582669D01*
X112830594Y-241636486D01*
X112780318Y-241663853D01*
X112771581Y-241666330D01*
X112740613Y-241649850D01*
X112669118Y-241604013D01*
X112562377Y-241532442D01*
X112425671Y-241438757D01*
X112264280Y-241326582D01*
X112083485Y-241199540D01*
X111888567Y-241061252D01*
X111865067Y-241044493D01*
X110997135Y-240425217D01*
X110556798Y-240737963D01*
X110418646Y-240834860D01*
X110295855Y-240918662D01*
X110195894Y-240984459D01*
X110126230Y-241027344D01*
X110094332Y-241042410D01*
X110093716Y-241042300D01*
X110064944Y-241024116D01*
X109997283Y-240977992D01*
X109897758Y-240908821D01*
X109773392Y-240821497D01*
X109631210Y-240720912D01*
X109575208Y-240681112D01*
X109079446Y-240328334D01*
X109080224Y-238180798D01*
X112066661Y-238180798D01*
X112083964Y-238206286D01*
X112139397Y-238255162D01*
X112223333Y-238320723D01*
X112326147Y-238396265D01*
X112438211Y-238475086D01*
X112549900Y-238550484D01*
X112651588Y-238615755D01*
X112733649Y-238664199D01*
X112786455Y-238689110D01*
X112798893Y-238690643D01*
X112834254Y-238670087D01*
X112906105Y-238622567D01*
X113005295Y-238554323D01*
X113122671Y-238471598D01*
X113175141Y-238434071D01*
X113292109Y-238347694D01*
X113388378Y-238272047D01*
X113456560Y-238213306D01*
X113489268Y-238177649D01*
X113490248Y-238170587D01*
X113458759Y-238146838D01*
X113391597Y-238098182D01*
X113299266Y-238032177D01*
X113212778Y-237970862D01*
X113098953Y-237890145D01*
X112993171Y-237814588D01*
X112909530Y-237754293D01*
X112871547Y-237726455D01*
X112784316Y-237661486D01*
X112430985Y-237908354D01*
X112307667Y-237995633D01*
X112201624Y-238072806D01*
X112121179Y-238133647D01*
X112074656Y-238171933D01*
X112066661Y-238180798D01*
X109080224Y-238180798D01*
X109080452Y-237552875D01*
X109389751Y-237552875D01*
X109411192Y-237578726D01*
X109470429Y-237627727D01*
X109557717Y-237693232D01*
X109663313Y-237768593D01*
X109777472Y-237847164D01*
X109890450Y-237922298D01*
X109992502Y-237987349D01*
X110073883Y-238035671D01*
X110124851Y-238060616D01*
X110136248Y-238062058D01*
X110169851Y-238039711D01*
X110240798Y-237991540D01*
X110339968Y-237923771D01*
X110458240Y-237842628D01*
X110511533Y-237805976D01*
X110854959Y-237569617D01*
X110854171Y-237569051D01*
X111140489Y-237569051D01*
X111512283Y-237824862D01*
X111639997Y-237910466D01*
X111752518Y-237981617D01*
X111841362Y-238033284D01*
X111898045Y-238060438D01*
X111913427Y-238062691D01*
X111945935Y-238040541D01*
X112015270Y-237991920D01*
X112112371Y-237923227D01*
X112228177Y-237840858D01*
X112274389Y-237807883D01*
X112392088Y-237722571D01*
X112491245Y-237648309D01*
X112563729Y-237591371D01*
X112601410Y-237558037D01*
X112604916Y-237552695D01*
X112582463Y-237531228D01*
X112521259Y-237484114D01*
X112429350Y-237417263D01*
X112314784Y-237336584D01*
X112246319Y-237289341D01*
X111888807Y-237044348D01*
X111619459Y-237231466D01*
X111500182Y-237314541D01*
X111386931Y-237393793D01*
X111294211Y-237459050D01*
X111245300Y-237493818D01*
X111140489Y-237569051D01*
X110854171Y-237569051D01*
X110749758Y-237494101D01*
X110683093Y-237446794D01*
X110584552Y-237377539D01*
X110468662Y-237296523D01*
X110375208Y-237231466D01*
X110105860Y-237044348D01*
X109748347Y-237289341D01*
X109624887Y-237375044D01*
X109519740Y-237450129D01*
X109440954Y-237508684D01*
X109396575Y-237544792D01*
X109389751Y-237552875D01*
X109080452Y-237552875D01*
X109080679Y-236927132D01*
X110277929Y-236927132D01*
X110295976Y-236947828D01*
X110350681Y-236994332D01*
X110432751Y-237059674D01*
X110532893Y-237136882D01*
X110641816Y-237218985D01*
X110750226Y-237299011D01*
X110848830Y-237369988D01*
X110928337Y-237424945D01*
X110979454Y-237456910D01*
X110990817Y-237461960D01*
X111015273Y-237447259D01*
X111077906Y-237405476D01*
X111170749Y-237342035D01*
X111285837Y-237262362D01*
X111364841Y-237207212D01*
X111488288Y-237118771D01*
X111592145Y-237040509D01*
X111668937Y-236978376D01*
X111711192Y-236938319D01*
X111716746Y-236927144D01*
X111685269Y-236897447D01*
X111617594Y-236845200D01*
X111524032Y-236777421D01*
X111414898Y-236701129D01*
X111300504Y-236623342D01*
X111191162Y-236551078D01*
X111097185Y-236491356D01*
X111028887Y-236451195D01*
X110997333Y-236437549D01*
X110962526Y-236452963D01*
X110892359Y-236494524D01*
X110797145Y-236555215D01*
X110687198Y-236628018D01*
X110572830Y-236705914D01*
X110464354Y-236781884D01*
X110372083Y-236848911D01*
X110306330Y-236899977D01*
X110277929Y-236927132D01*
X109080679Y-236927132D01*
X109080905Y-236305037D01*
X109402778Y-236305037D01*
X109424455Y-236329134D01*
X109482957Y-236377937D01*
X109568484Y-236444332D01*
X109671240Y-236521205D01*
X109781428Y-236601443D01*
X109889250Y-236677933D01*
X109984908Y-236743560D01*
X110058605Y-236791212D01*
X110100544Y-236813774D01*
X110104687Y-236814667D01*
X110135300Y-236799227D01*
X110203226Y-236756686D01*
X110299818Y-236692710D01*
X110416431Y-236612967D01*
X110479201Y-236569193D01*
X110600119Y-236482599D01*
X110701918Y-236406378D01*
X110776780Y-236346649D01*
X110816888Y-236309532D01*
X110818869Y-236305924D01*
X111180778Y-236305924D01*
X111202545Y-236330441D01*
X111261294Y-236379424D01*
X111347198Y-236445797D01*
X111450427Y-236522487D01*
X111561155Y-236602418D01*
X111669552Y-236678515D01*
X111765791Y-236743705D01*
X111840044Y-236790912D01*
X111882482Y-236813063D01*
X111886413Y-236813868D01*
X111918288Y-236798523D01*
X111986960Y-236755763D01*
X112083590Y-236691390D01*
X112199341Y-236611209D01*
X112253302Y-236572952D01*
X112372549Y-236486135D01*
X112473396Y-236409497D01*
X112547737Y-236349453D01*
X112587464Y-236312418D01*
X112591889Y-236305037D01*
X112570100Y-236280609D01*
X112511298Y-236231775D01*
X112425327Y-236165597D01*
X112322033Y-236089137D01*
X112211261Y-236009455D01*
X112102857Y-235933614D01*
X112006666Y-235868675D01*
X111932534Y-235821700D01*
X111890305Y-235799750D01*
X111886333Y-235798980D01*
X111852050Y-235814634D01*
X111783801Y-235856879D01*
X111691428Y-235918643D01*
X111584775Y-235992856D01*
X111473685Y-236072444D01*
X111368000Y-236150336D01*
X111277563Y-236219458D01*
X111212217Y-236272741D01*
X111181805Y-236303110D01*
X111180778Y-236305924D01*
X110818869Y-236305924D01*
X110821435Y-236301253D01*
X110796159Y-236276402D01*
X110733995Y-236227296D01*
X110645002Y-236161018D01*
X110539237Y-236084652D01*
X110426757Y-236005282D01*
X110317619Y-235929993D01*
X110221881Y-235865867D01*
X110149601Y-235819990D01*
X110110835Y-235799444D01*
X110108333Y-235798980D01*
X110074275Y-235814608D01*
X110006190Y-235856784D01*
X109913924Y-235918446D01*
X109807321Y-235992534D01*
X109696227Y-236071984D01*
X109590488Y-236149736D01*
X109499948Y-236218729D01*
X109434454Y-236271900D01*
X109403851Y-236302188D01*
X109402778Y-236305037D01*
X109080905Y-236305037D01*
X109080910Y-236292556D01*
X109584683Y-235942715D01*
X109733381Y-235840382D01*
X109866899Y-235750262D01*
X109978195Y-235676963D01*
X110060229Y-235625094D01*
X110105959Y-235599263D01*
X110112506Y-235597252D01*
X110142307Y-235614027D01*
X110210632Y-235658024D01*
X110309763Y-235724097D01*
X110431979Y-235807103D01*
X110566945Y-235900083D01*
X110997333Y-236198536D01*
X111432608Y-235896695D01*
X111570618Y-235801914D01*
X111693111Y-235719537D01*
X111792447Y-235654560D01*
X111860990Y-235611975D01*
X111891102Y-235596780D01*
X111891219Y-235596785D01*
G37*
X111891219Y-235596785D02*
X111920317Y-235612789D01*
X111988562Y-235656465D01*
X112088879Y-235723096D01*
X112214192Y-235807958D01*
X112357425Y-235906334D01*
X112414156Y-235945636D01*
X112913757Y-236292556D01*
X112919899Y-237562556D01*
X113362672Y-237873758D01*
X113805445Y-238184959D01*
X113812762Y-239567715D01*
X113820080Y-240950471D01*
X113315121Y-241309680D01*
X113165851Y-241414550D01*
X113030548Y-241507119D01*
X112916400Y-241582669D01*
X112830594Y-241636486D01*
X112780318Y-241663853D01*
X112771581Y-241666330D01*
X112740613Y-241649850D01*
X112669118Y-241604013D01*
X112562377Y-241532442D01*
X112425671Y-241438757D01*
X112264280Y-241326582D01*
X112083485Y-241199540D01*
X111888567Y-241061252D01*
X111865067Y-241044493D01*
X110997135Y-240425217D01*
X110556798Y-240737963D01*
X110418646Y-240834860D01*
X110295855Y-240918662D01*
X110195894Y-240984459D01*
X110126230Y-241027344D01*
X110094332Y-241042410D01*
X110093716Y-241042300D01*
X110064944Y-241024116D01*
X109997283Y-240977992D01*
X109897758Y-240908821D01*
X109773392Y-240821497D01*
X109631210Y-240720912D01*
X109575208Y-240681112D01*
X109079446Y-240328334D01*
X109080224Y-238180798D01*
X112066661Y-238180798D01*
X112083964Y-238206286D01*
X112139397Y-238255162D01*
X112223333Y-238320723D01*
X112326147Y-238396265D01*
X112438211Y-238475086D01*
X112549900Y-238550484D01*
X112651588Y-238615755D01*
X112733649Y-238664199D01*
X112786455Y-238689110D01*
X112798893Y-238690643D01*
X112834254Y-238670087D01*
X112906105Y-238622567D01*
X113005295Y-238554323D01*
X113122671Y-238471598D01*
X113175141Y-238434071D01*
X113292109Y-238347694D01*
X113388378Y-238272047D01*
X113456560Y-238213306D01*
X113489268Y-238177649D01*
X113490248Y-238170587D01*
X113458759Y-238146838D01*
X113391597Y-238098182D01*
X113299266Y-238032177D01*
X113212778Y-237970862D01*
X113098953Y-237890145D01*
X112993171Y-237814588D01*
X112909530Y-237754293D01*
X112871547Y-237726455D01*
X112784316Y-237661486D01*
X112430985Y-237908354D01*
X112307667Y-237995633D01*
X112201624Y-238072806D01*
X112121179Y-238133647D01*
X112074656Y-238171933D01*
X112066661Y-238180798D01*
X109080224Y-238180798D01*
X109080452Y-237552875D01*
X109389751Y-237552875D01*
X109411192Y-237578726D01*
X109470429Y-237627727D01*
X109557717Y-237693232D01*
X109663313Y-237768593D01*
X109777472Y-237847164D01*
X109890450Y-237922298D01*
X109992502Y-237987349D01*
X110073883Y-238035671D01*
X110124851Y-238060616D01*
X110136248Y-238062058D01*
X110169851Y-238039711D01*
X110240798Y-237991540D01*
X110339968Y-237923771D01*
X110458240Y-237842628D01*
X110511533Y-237805976D01*
X110854959Y-237569617D01*
X110854171Y-237569051D01*
X111140489Y-237569051D01*
X111512283Y-237824862D01*
X111639997Y-237910466D01*
X111752518Y-237981617D01*
X111841362Y-238033284D01*
X111898045Y-238060438D01*
X111913427Y-238062691D01*
X111945935Y-238040541D01*
X112015270Y-237991920D01*
X112112371Y-237923227D01*
X112228177Y-237840858D01*
X112274389Y-237807883D01*
X112392088Y-237722571D01*
X112491245Y-237648309D01*
X112563729Y-237591371D01*
X112601410Y-237558037D01*
X112604916Y-237552695D01*
X112582463Y-237531228D01*
X112521259Y-237484114D01*
X112429350Y-237417263D01*
X112314784Y-237336584D01*
X112246319Y-237289341D01*
X111888807Y-237044348D01*
X111619459Y-237231466D01*
X111500182Y-237314541D01*
X111386931Y-237393793D01*
X111294211Y-237459050D01*
X111245300Y-237493818D01*
X111140489Y-237569051D01*
X110854171Y-237569051D01*
X110749758Y-237494101D01*
X110683093Y-237446794D01*
X110584552Y-237377539D01*
X110468662Y-237296523D01*
X110375208Y-237231466D01*
X110105860Y-237044348D01*
X109748347Y-237289341D01*
X109624887Y-237375044D01*
X109519740Y-237450129D01*
X109440954Y-237508684D01*
X109396575Y-237544792D01*
X109389751Y-237552875D01*
X109080452Y-237552875D01*
X109080679Y-236927132D01*
X110277929Y-236927132D01*
X110295976Y-236947828D01*
X110350681Y-236994332D01*
X110432751Y-237059674D01*
X110532893Y-237136882D01*
X110641816Y-237218985D01*
X110750226Y-237299011D01*
X110848830Y-237369988D01*
X110928337Y-237424945D01*
X110979454Y-237456910D01*
X110990817Y-237461960D01*
X111015273Y-237447259D01*
X111077906Y-237405476D01*
X111170749Y-237342035D01*
X111285837Y-237262362D01*
X111364841Y-237207212D01*
X111488288Y-237118771D01*
X111592145Y-237040509D01*
X111668937Y-236978376D01*
X111711192Y-236938319D01*
X111716746Y-236927144D01*
X111685269Y-236897447D01*
X111617594Y-236845200D01*
X111524032Y-236777421D01*
X111414898Y-236701129D01*
X111300504Y-236623342D01*
X111191162Y-236551078D01*
X111097185Y-236491356D01*
X111028887Y-236451195D01*
X110997333Y-236437549D01*
X110962526Y-236452963D01*
X110892359Y-236494524D01*
X110797145Y-236555215D01*
X110687198Y-236628018D01*
X110572830Y-236705914D01*
X110464354Y-236781884D01*
X110372083Y-236848911D01*
X110306330Y-236899977D01*
X110277929Y-236927132D01*
X109080679Y-236927132D01*
X109080905Y-236305037D01*
X109402778Y-236305037D01*
X109424455Y-236329134D01*
X109482957Y-236377937D01*
X109568484Y-236444332D01*
X109671240Y-236521205D01*
X109781428Y-236601443D01*
X109889250Y-236677933D01*
X109984908Y-236743560D01*
X110058605Y-236791212D01*
X110100544Y-236813774D01*
X110104687Y-236814667D01*
X110135300Y-236799227D01*
X110203226Y-236756686D01*
X110299818Y-236692710D01*
X110416431Y-236612967D01*
X110479201Y-236569193D01*
X110600119Y-236482599D01*
X110701918Y-236406378D01*
X110776780Y-236346649D01*
X110816888Y-236309532D01*
X110818869Y-236305924D01*
X111180778Y-236305924D01*
X111202545Y-236330441D01*
X111261294Y-236379424D01*
X111347198Y-236445797D01*
X111450427Y-236522487D01*
X111561155Y-236602418D01*
X111669552Y-236678515D01*
X111765791Y-236743705D01*
X111840044Y-236790912D01*
X111882482Y-236813063D01*
X111886413Y-236813868D01*
X111918288Y-236798523D01*
X111986960Y-236755763D01*
X112083590Y-236691390D01*
X112199341Y-236611209D01*
X112253302Y-236572952D01*
X112372549Y-236486135D01*
X112473396Y-236409497D01*
X112547737Y-236349453D01*
X112587464Y-236312418D01*
X112591889Y-236305037D01*
X112570100Y-236280609D01*
X112511298Y-236231775D01*
X112425327Y-236165597D01*
X112322033Y-236089137D01*
X112211261Y-236009455D01*
X112102857Y-235933614D01*
X112006666Y-235868675D01*
X111932534Y-235821700D01*
X111890305Y-235799750D01*
X111886333Y-235798980D01*
X111852050Y-235814634D01*
X111783801Y-235856879D01*
X111691428Y-235918643D01*
X111584775Y-235992856D01*
X111473685Y-236072444D01*
X111368000Y-236150336D01*
X111277563Y-236219458D01*
X111212217Y-236272741D01*
X111181805Y-236303110D01*
X111180778Y-236305924D01*
X110818869Y-236305924D01*
X110821435Y-236301253D01*
X110796159Y-236276402D01*
X110733995Y-236227296D01*
X110645002Y-236161018D01*
X110539237Y-236084652D01*
X110426757Y-236005282D01*
X110317619Y-235929993D01*
X110221881Y-235865867D01*
X110149601Y-235819990D01*
X110110835Y-235799444D01*
X110108333Y-235798980D01*
X110074275Y-235814608D01*
X110006190Y-235856784D01*
X109913924Y-235918446D01*
X109807321Y-235992534D01*
X109696227Y-236071984D01*
X109590488Y-236149736D01*
X109499948Y-236218729D01*
X109434454Y-236271900D01*
X109403851Y-236302188D01*
X109402778Y-236305037D01*
X109080905Y-236305037D01*
X109080910Y-236292556D01*
X109584683Y-235942715D01*
X109733381Y-235840382D01*
X109866899Y-235750262D01*
X109978195Y-235676963D01*
X110060229Y-235625094D01*
X110105959Y-235599263D01*
X110112506Y-235597252D01*
X110142307Y-235614027D01*
X110210632Y-235658024D01*
X110309763Y-235724097D01*
X110431979Y-235807103D01*
X110566945Y-235900083D01*
X110997333Y-236198536D01*
X111432608Y-235896695D01*
X111570618Y-235801914D01*
X111693111Y-235719537D01*
X111792447Y-235654560D01*
X111860990Y-235611975D01*
X111891102Y-235596780D01*
X111891219Y-235596785D01*
G36*
X99115084Y-234976333D02*
G01*
X99181506Y-235022123D01*
X99280023Y-235090930D01*
X99403693Y-235177896D01*
X99545571Y-235278165D01*
X99603019Y-235318889D01*
X100100248Y-235671667D01*
X100108957Y-236200590D01*
X100117667Y-236729513D01*
X100478508Y-236473741D01*
X100603232Y-236386827D01*
X100712140Y-236313752D01*
X100796891Y-236259891D01*
X100849147Y-236230618D01*
X100861321Y-236227040D01*
X100889976Y-236245251D01*
X100957758Y-236291084D01*
X101057626Y-236359692D01*
X101182537Y-236446228D01*
X101325449Y-236545845D01*
X101382424Y-236585709D01*
X101881556Y-236935307D01*
X101880839Y-238321376D01*
X101880123Y-239707445D01*
X101648006Y-239867550D01*
X101524661Y-239952803D01*
X101376649Y-240055367D01*
X101225587Y-240160250D01*
X101130931Y-240226098D01*
X100845974Y-240424540D01*
X100481820Y-240170056D01*
X100117667Y-239915572D01*
X100103556Y-240437402D01*
X100089445Y-240959233D01*
X99583883Y-241314061D01*
X99435600Y-241417584D01*
X99302989Y-241509121D01*
X99192923Y-241584011D01*
X99112280Y-241637594D01*
X99067934Y-241665211D01*
X99061772Y-241667945D01*
X99036893Y-241651871D01*
X98969074Y-241605386D01*
X98861445Y-241530686D01*
X98717137Y-241429971D01*
X98539280Y-241305438D01*
X98331006Y-241159286D01*
X98095445Y-240993711D01*
X97835727Y-240810913D01*
X97554985Y-240613090D01*
X97256347Y-240402438D01*
X96942946Y-240181158D01*
X96766278Y-240056327D01*
X94487333Y-238445655D01*
X94487333Y-238189470D01*
X98327324Y-238189470D01*
X98686273Y-238446660D01*
X98811703Y-238534076D01*
X98922963Y-238607016D01*
X99011323Y-238660113D01*
X99068056Y-238688000D01*
X99082893Y-238690560D01*
X99118253Y-238670034D01*
X99190103Y-238622539D01*
X99289291Y-238554316D01*
X99406665Y-238471601D01*
X99459141Y-238434071D01*
X99576109Y-238347694D01*
X99672378Y-238272047D01*
X99740560Y-238213306D01*
X99773268Y-238177649D01*
X99774248Y-238170587D01*
X99742759Y-238146838D01*
X99675597Y-238098182D01*
X99583266Y-238032177D01*
X99496778Y-237970862D01*
X99382967Y-237890155D01*
X99277211Y-237814619D01*
X99193605Y-237754349D01*
X99155641Y-237726527D01*
X99068504Y-237661629D01*
X98697914Y-237925550D01*
X98327324Y-238189470D01*
X94487333Y-238189470D01*
X94487333Y-237548388D01*
X97498704Y-237548388D01*
X97511968Y-237595361D01*
X97565304Y-237648834D01*
X97657932Y-237717184D01*
X97789071Y-237808789D01*
X97809325Y-237823140D01*
X97933002Y-237910891D01*
X98039407Y-237986047D01*
X98120557Y-238042996D01*
X98168469Y-238076128D01*
X98177928Y-238082236D01*
X98202378Y-238067743D01*
X98265013Y-238026133D01*
X98357882Y-237962808D01*
X98473036Y-237883171D01*
X98553163Y-237827254D01*
X98677081Y-237739708D01*
X98782119Y-237664006D01*
X98860707Y-237605725D01*
X98905274Y-237570444D01*
X98912457Y-237562519D01*
X98887684Y-237544654D01*
X98824701Y-237500083D01*
X98731541Y-237434467D01*
X98616238Y-237353466D01*
X98539319Y-237299522D01*
X98174526Y-237043847D01*
X97861985Y-237257953D01*
X97707154Y-237362698D01*
X97595516Y-237440433D01*
X97526293Y-237499538D01*
X97498704Y-237548388D01*
X94487333Y-237548388D01*
X94487333Y-236944841D01*
X96555434Y-236944841D01*
X96580998Y-236963781D01*
X96644738Y-237009234D01*
X96738518Y-237075449D01*
X96854202Y-237156672D01*
X96928689Y-237208782D01*
X97070793Y-237305309D01*
X97186476Y-237378281D01*
X97270145Y-237424419D01*
X97316205Y-237440446D01*
X97321687Y-237439026D01*
X97354732Y-237415145D01*
X97424851Y-237365437D01*
X97522843Y-237296396D01*
X97639507Y-237214513D01*
X97683766Y-237183519D01*
X97800731Y-237099395D01*
X97897522Y-237025429D01*
X97966326Y-236967939D01*
X97997306Y-236935371D01*
X98326731Y-236935371D01*
X98698509Y-237197855D01*
X98825732Y-237285378D01*
X98937973Y-237358268D01*
X99026845Y-237411417D01*
X99083962Y-237439720D01*
X99100088Y-237442373D01*
X99132816Y-237420281D01*
X99202420Y-237371832D01*
X99299796Y-237303407D01*
X99415840Y-237221389D01*
X99461500Y-237189006D01*
X99579333Y-237103986D01*
X99678558Y-237029774D01*
X99751015Y-236972678D01*
X99788546Y-236939005D01*
X99791812Y-236933748D01*
X100133075Y-236933748D01*
X100154368Y-236960314D01*
X100213420Y-237009649D01*
X100300496Y-237075152D01*
X100405864Y-237150222D01*
X100519793Y-237228258D01*
X100632549Y-237302660D01*
X100734400Y-237366826D01*
X100815614Y-237414156D01*
X100866458Y-237438049D01*
X100877857Y-237438885D01*
X100910838Y-237415057D01*
X100980898Y-237365397D01*
X101078843Y-237296393D01*
X101195478Y-237214533D01*
X101239766Y-237183519D01*
X101356731Y-237099395D01*
X101453522Y-237025429D01*
X101522326Y-236967939D01*
X101555330Y-236933244D01*
X101556756Y-236927161D01*
X101530594Y-236904668D01*
X101468201Y-236857166D01*
X101379669Y-236791894D01*
X101275091Y-236716092D01*
X101164562Y-236637000D01*
X101058173Y-236561858D01*
X100966018Y-236497904D01*
X100898190Y-236452379D01*
X100872988Y-236436703D01*
X100841157Y-236446143D01*
X100773733Y-236482337D01*
X100680621Y-236538631D01*
X100571724Y-236608373D01*
X100456946Y-236684909D01*
X100346192Y-236761585D01*
X100249366Y-236831750D01*
X100176372Y-236888750D01*
X100137113Y-236925930D01*
X100133075Y-236933748D01*
X99791812Y-236933748D01*
X99791952Y-236933524D01*
X99770047Y-236912580D01*
X99711502Y-236866440D01*
X99626028Y-236802116D01*
X99523340Y-236726621D01*
X99413150Y-236646965D01*
X99305171Y-236570161D01*
X99209117Y-236503219D01*
X99134701Y-236453153D01*
X99091635Y-236426972D01*
X99087980Y-236425344D01*
X99058525Y-236437923D01*
X98991452Y-236478055D01*
X98895042Y-236540437D01*
X98777573Y-236619766D01*
X98696286Y-236676197D01*
X98326731Y-236935371D01*
X97997306Y-236935371D01*
X97999330Y-236933244D01*
X98000756Y-236927161D01*
X97974611Y-236904690D01*
X97912242Y-236857209D01*
X97823746Y-236791960D01*
X97719219Y-236716186D01*
X97608758Y-236637133D01*
X97502461Y-236562041D01*
X97410424Y-236498156D01*
X97342744Y-236452719D01*
X97317588Y-236437074D01*
X97287088Y-236446533D01*
X97221374Y-236481906D01*
X97129856Y-236536925D01*
X97021941Y-236605321D01*
X96907040Y-236680825D01*
X96794560Y-236757170D01*
X96693911Y-236828087D01*
X96614502Y-236887308D01*
X96565740Y-236928564D01*
X96555434Y-236944841D01*
X94487333Y-236944841D01*
X94487333Y-236304270D01*
X95686778Y-236304270D01*
X95708566Y-236328821D01*
X95767382Y-236377799D01*
X95853405Y-236444149D01*
X95956813Y-236520816D01*
X96067784Y-236600747D01*
X96176498Y-236676886D01*
X96273131Y-236742179D01*
X96347864Y-236789572D01*
X96390874Y-236812009D01*
X96394891Y-236812887D01*
X96427697Y-236797882D01*
X96497147Y-236755407D01*
X96594293Y-236691271D01*
X96710187Y-236611283D01*
X96761780Y-236574729D01*
X96881237Y-236488274D01*
X96983105Y-236412311D01*
X97059019Y-236353253D01*
X97100613Y-236317513D01*
X97105837Y-236310995D01*
X97086623Y-236288542D01*
X97030108Y-236241547D01*
X96945899Y-236176866D01*
X96843601Y-236101355D01*
X96732821Y-236021870D01*
X96623163Y-235945266D01*
X96524233Y-235878398D01*
X96445638Y-235828123D01*
X96396983Y-235801297D01*
X96387995Y-235798667D01*
X96354636Y-235814333D01*
X96287214Y-235856602D01*
X96195566Y-235918382D01*
X96089529Y-235992578D01*
X95978941Y-236072098D01*
X95873640Y-236149849D01*
X95783461Y-236218738D01*
X95718244Y-236271671D01*
X95687824Y-236301556D01*
X95686778Y-236304270D01*
X94487333Y-236304270D01*
X94487333Y-235677036D01*
X94779628Y-235677036D01*
X94822113Y-235712458D01*
X94897283Y-235768518D01*
X94995386Y-235838576D01*
X95106667Y-235915991D01*
X95221373Y-235994124D01*
X95329750Y-236066334D01*
X95422045Y-236125983D01*
X95488504Y-236166430D01*
X95519374Y-236181035D01*
X95519857Y-236180953D01*
X95552597Y-236161709D01*
X95622216Y-236115471D01*
X95719838Y-236048298D01*
X95836591Y-235966254D01*
X95893802Y-235925529D01*
X96013583Y-235839455D01*
X96115160Y-235765575D01*
X96190555Y-235709760D01*
X96231791Y-235677884D01*
X96237111Y-235672788D01*
X96215206Y-235655031D01*
X96154800Y-235610919D01*
X96063854Y-235546148D01*
X95950331Y-235466411D01*
X95882596Y-235419241D01*
X95730133Y-235316547D01*
X95610435Y-235242655D01*
X95527242Y-235199715D01*
X95484298Y-235189880D01*
X95483955Y-235190005D01*
X95447476Y-235210629D01*
X95378004Y-235255180D01*
X95285214Y-235316969D01*
X95178777Y-235389308D01*
X95068365Y-235465509D01*
X94963652Y-235538883D01*
X94874310Y-235602742D01*
X94810011Y-235650397D01*
X94780428Y-235675160D01*
X94779628Y-235677036D01*
X94487333Y-235677036D01*
X94487333Y-235666967D01*
X94997113Y-235307404D01*
X95163530Y-235190407D01*
X95290376Y-235102714D01*
X95383993Y-235040796D01*
X95450724Y-235001128D01*
X95496911Y-234980179D01*
X95528896Y-234974423D01*
X95553021Y-234980332D01*
X95568613Y-234989508D01*
X95603114Y-235013513D01*
X95679128Y-235066877D01*
X95792082Y-235146376D01*
X95937399Y-235248785D01*
X96110507Y-235370876D01*
X96306830Y-235509425D01*
X96521794Y-235661207D01*
X96750824Y-235822994D01*
X96829778Y-235878784D01*
X98029222Y-236726392D01*
X98043333Y-236200232D01*
X98057131Y-235685778D01*
X98354556Y-235685778D01*
X98376150Y-235704456D01*
X98434663Y-235748264D01*
X98520453Y-235810425D01*
X98623878Y-235884161D01*
X98735295Y-235962695D01*
X98845063Y-236039250D01*
X98943539Y-236107049D01*
X99021083Y-236159313D01*
X99068050Y-236189266D01*
X99077279Y-236193778D01*
X99101503Y-236178570D01*
X99163826Y-236136672D01*
X99256041Y-236073672D01*
X99369945Y-235995159D01*
X99431461Y-235952530D01*
X99552867Y-235866669D01*
X99655785Y-235790860D01*
X99732108Y-235731316D01*
X99773729Y-235694247D01*
X99779000Y-235686245D01*
X99757321Y-235662430D01*
X99698817Y-235613903D01*
X99613289Y-235547764D01*
X99510537Y-235471113D01*
X99400361Y-235391052D01*
X99292562Y-235314682D01*
X99196939Y-235249102D01*
X99123294Y-235201413D01*
X99081426Y-235178718D01*
X99077222Y-235177778D01*
X99047171Y-235193103D01*
X98981966Y-235234516D01*
X98891339Y-235295176D01*
X98785021Y-235368244D01*
X98672744Y-235446878D01*
X98564241Y-235524237D01*
X98469241Y-235593480D01*
X98397477Y-235647767D01*
X98358679Y-235680257D01*
X98354556Y-235685778D01*
X98057131Y-235685778D01*
X98057445Y-235674071D01*
X98563530Y-235312397D01*
X98711458Y-235207574D01*
X98843973Y-235115377D01*
X98954254Y-235040410D01*
X99035483Y-234987278D01*
X99080840Y-234960588D01*
X99087703Y-234958418D01*
X99115084Y-234976333D01*
G37*
X99115084Y-234976333D02*
X99181506Y-235022123D01*
X99280023Y-235090930D01*
X99403693Y-235177896D01*
X99545571Y-235278165D01*
X99603019Y-235318889D01*
X100100248Y-235671667D01*
X100108957Y-236200590D01*
X100117667Y-236729513D01*
X100478508Y-236473741D01*
X100603232Y-236386827D01*
X100712140Y-236313752D01*
X100796891Y-236259891D01*
X100849147Y-236230618D01*
X100861321Y-236227040D01*
X100889976Y-236245251D01*
X100957758Y-236291084D01*
X101057626Y-236359692D01*
X101182537Y-236446228D01*
X101325449Y-236545845D01*
X101382424Y-236585709D01*
X101881556Y-236935307D01*
X101880839Y-238321376D01*
X101880123Y-239707445D01*
X101648006Y-239867550D01*
X101524661Y-239952803D01*
X101376649Y-240055367D01*
X101225587Y-240160250D01*
X101130931Y-240226098D01*
X100845974Y-240424540D01*
X100481820Y-240170056D01*
X100117667Y-239915572D01*
X100103556Y-240437402D01*
X100089445Y-240959233D01*
X99583883Y-241314061D01*
X99435600Y-241417584D01*
X99302989Y-241509121D01*
X99192923Y-241584011D01*
X99112280Y-241637594D01*
X99067934Y-241665211D01*
X99061772Y-241667945D01*
X99036893Y-241651871D01*
X98969074Y-241605386D01*
X98861445Y-241530686D01*
X98717137Y-241429971D01*
X98539280Y-241305438D01*
X98331006Y-241159286D01*
X98095445Y-240993711D01*
X97835727Y-240810913D01*
X97554985Y-240613090D01*
X97256347Y-240402438D01*
X96942946Y-240181158D01*
X96766278Y-240056327D01*
X94487333Y-238445655D01*
X94487333Y-238189470D01*
X98327324Y-238189470D01*
X98686273Y-238446660D01*
X98811703Y-238534076D01*
X98922963Y-238607016D01*
X99011323Y-238660113D01*
X99068056Y-238688000D01*
X99082893Y-238690560D01*
X99118253Y-238670034D01*
X99190103Y-238622539D01*
X99289291Y-238554316D01*
X99406665Y-238471601D01*
X99459141Y-238434071D01*
X99576109Y-238347694D01*
X99672378Y-238272047D01*
X99740560Y-238213306D01*
X99773268Y-238177649D01*
X99774248Y-238170587D01*
X99742759Y-238146838D01*
X99675597Y-238098182D01*
X99583266Y-238032177D01*
X99496778Y-237970862D01*
X99382967Y-237890155D01*
X99277211Y-237814619D01*
X99193605Y-237754349D01*
X99155641Y-237726527D01*
X99068504Y-237661629D01*
X98697914Y-237925550D01*
X98327324Y-238189470D01*
X94487333Y-238189470D01*
X94487333Y-237548388D01*
X97498704Y-237548388D01*
X97511968Y-237595361D01*
X97565304Y-237648834D01*
X97657932Y-237717184D01*
X97789071Y-237808789D01*
X97809325Y-237823140D01*
X97933002Y-237910891D01*
X98039407Y-237986047D01*
X98120557Y-238042996D01*
X98168469Y-238076128D01*
X98177928Y-238082236D01*
X98202378Y-238067743D01*
X98265013Y-238026133D01*
X98357882Y-237962808D01*
X98473036Y-237883171D01*
X98553163Y-237827254D01*
X98677081Y-237739708D01*
X98782119Y-237664006D01*
X98860707Y-237605725D01*
X98905274Y-237570444D01*
X98912457Y-237562519D01*
X98887684Y-237544654D01*
X98824701Y-237500083D01*
X98731541Y-237434467D01*
X98616238Y-237353466D01*
X98539319Y-237299522D01*
X98174526Y-237043847D01*
X97861985Y-237257953D01*
X97707154Y-237362698D01*
X97595516Y-237440433D01*
X97526293Y-237499538D01*
X97498704Y-237548388D01*
X94487333Y-237548388D01*
X94487333Y-236944841D01*
X96555434Y-236944841D01*
X96580998Y-236963781D01*
X96644738Y-237009234D01*
X96738518Y-237075449D01*
X96854202Y-237156672D01*
X96928689Y-237208782D01*
X97070793Y-237305309D01*
X97186476Y-237378281D01*
X97270145Y-237424419D01*
X97316205Y-237440446D01*
X97321687Y-237439026D01*
X97354732Y-237415145D01*
X97424851Y-237365437D01*
X97522843Y-237296396D01*
X97639507Y-237214513D01*
X97683766Y-237183519D01*
X97800731Y-237099395D01*
X97897522Y-237025429D01*
X97966326Y-236967939D01*
X97997306Y-236935371D01*
X98326731Y-236935371D01*
X98698509Y-237197855D01*
X98825732Y-237285378D01*
X98937973Y-237358268D01*
X99026845Y-237411417D01*
X99083962Y-237439720D01*
X99100088Y-237442373D01*
X99132816Y-237420281D01*
X99202420Y-237371832D01*
X99299796Y-237303407D01*
X99415840Y-237221389D01*
X99461500Y-237189006D01*
X99579333Y-237103986D01*
X99678558Y-237029774D01*
X99751015Y-236972678D01*
X99788546Y-236939005D01*
X99791812Y-236933748D01*
X100133075Y-236933748D01*
X100154368Y-236960314D01*
X100213420Y-237009649D01*
X100300496Y-237075152D01*
X100405864Y-237150222D01*
X100519793Y-237228258D01*
X100632549Y-237302660D01*
X100734400Y-237366826D01*
X100815614Y-237414156D01*
X100866458Y-237438049D01*
X100877857Y-237438885D01*
X100910838Y-237415057D01*
X100980898Y-237365397D01*
X101078843Y-237296393D01*
X101195478Y-237214533D01*
X101239766Y-237183519D01*
X101356731Y-237099395D01*
X101453522Y-237025429D01*
X101522326Y-236967939D01*
X101555330Y-236933244D01*
X101556756Y-236927161D01*
X101530594Y-236904668D01*
X101468201Y-236857166D01*
X101379669Y-236791894D01*
X101275091Y-236716092D01*
X101164562Y-236637000D01*
X101058173Y-236561858D01*
X100966018Y-236497904D01*
X100898190Y-236452379D01*
X100872988Y-236436703D01*
X100841157Y-236446143D01*
X100773733Y-236482337D01*
X100680621Y-236538631D01*
X100571724Y-236608373D01*
X100456946Y-236684909D01*
X100346192Y-236761585D01*
X100249366Y-236831750D01*
X100176372Y-236888750D01*
X100137113Y-236925930D01*
X100133075Y-236933748D01*
X99791812Y-236933748D01*
X99791952Y-236933524D01*
X99770047Y-236912580D01*
X99711502Y-236866440D01*
X99626028Y-236802116D01*
X99523340Y-236726621D01*
X99413150Y-236646965D01*
X99305171Y-236570161D01*
X99209117Y-236503219D01*
X99134701Y-236453153D01*
X99091635Y-236426972D01*
X99087980Y-236425344D01*
X99058525Y-236437923D01*
X98991452Y-236478055D01*
X98895042Y-236540437D01*
X98777573Y-236619766D01*
X98696286Y-236676197D01*
X98326731Y-236935371D01*
X97997306Y-236935371D01*
X97999330Y-236933244D01*
X98000756Y-236927161D01*
X97974611Y-236904690D01*
X97912242Y-236857209D01*
X97823746Y-236791960D01*
X97719219Y-236716186D01*
X97608758Y-236637133D01*
X97502461Y-236562041D01*
X97410424Y-236498156D01*
X97342744Y-236452719D01*
X97317588Y-236437074D01*
X97287088Y-236446533D01*
X97221374Y-236481906D01*
X97129856Y-236536925D01*
X97021941Y-236605321D01*
X96907040Y-236680825D01*
X96794560Y-236757170D01*
X96693911Y-236828087D01*
X96614502Y-236887308D01*
X96565740Y-236928564D01*
X96555434Y-236944841D01*
X94487333Y-236944841D01*
X94487333Y-236304270D01*
X95686778Y-236304270D01*
X95708566Y-236328821D01*
X95767382Y-236377799D01*
X95853405Y-236444149D01*
X95956813Y-236520816D01*
X96067784Y-236600747D01*
X96176498Y-236676886D01*
X96273131Y-236742179D01*
X96347864Y-236789572D01*
X96390874Y-236812009D01*
X96394891Y-236812887D01*
X96427697Y-236797882D01*
X96497147Y-236755407D01*
X96594293Y-236691271D01*
X96710187Y-236611283D01*
X96761780Y-236574729D01*
X96881237Y-236488274D01*
X96983105Y-236412311D01*
X97059019Y-236353253D01*
X97100613Y-236317513D01*
X97105837Y-236310995D01*
X97086623Y-236288542D01*
X97030108Y-236241547D01*
X96945899Y-236176866D01*
X96843601Y-236101355D01*
X96732821Y-236021870D01*
X96623163Y-235945266D01*
X96524233Y-235878398D01*
X96445638Y-235828123D01*
X96396983Y-235801297D01*
X96387995Y-235798667D01*
X96354636Y-235814333D01*
X96287214Y-235856602D01*
X96195566Y-235918382D01*
X96089529Y-235992578D01*
X95978941Y-236072098D01*
X95873640Y-236149849D01*
X95783461Y-236218738D01*
X95718244Y-236271671D01*
X95687824Y-236301556D01*
X95686778Y-236304270D01*
X94487333Y-236304270D01*
X94487333Y-235677036D01*
X94779628Y-235677036D01*
X94822113Y-235712458D01*
X94897283Y-235768518D01*
X94995386Y-235838576D01*
X95106667Y-235915991D01*
X95221373Y-235994124D01*
X95329750Y-236066334D01*
X95422045Y-236125983D01*
X95488504Y-236166430D01*
X95519374Y-236181035D01*
X95519857Y-236180953D01*
X95552597Y-236161709D01*
X95622216Y-236115471D01*
X95719838Y-236048298D01*
X95836591Y-235966254D01*
X95893802Y-235925529D01*
X96013583Y-235839455D01*
X96115160Y-235765575D01*
X96190555Y-235709760D01*
X96231791Y-235677884D01*
X96237111Y-235672788D01*
X96215206Y-235655031D01*
X96154800Y-235610919D01*
X96063854Y-235546148D01*
X95950331Y-235466411D01*
X95882596Y-235419241D01*
X95730133Y-235316547D01*
X95610435Y-235242655D01*
X95527242Y-235199715D01*
X95484298Y-235189880D01*
X95483955Y-235190005D01*
X95447476Y-235210629D01*
X95378004Y-235255180D01*
X95285214Y-235316969D01*
X95178777Y-235389308D01*
X95068365Y-235465509D01*
X94963652Y-235538883D01*
X94874310Y-235602742D01*
X94810011Y-235650397D01*
X94780428Y-235675160D01*
X94779628Y-235677036D01*
X94487333Y-235677036D01*
X94487333Y-235666967D01*
X94997113Y-235307404D01*
X95163530Y-235190407D01*
X95290376Y-235102714D01*
X95383993Y-235040796D01*
X95450724Y-235001128D01*
X95496911Y-234980179D01*
X95528896Y-234974423D01*
X95553021Y-234980332D01*
X95568613Y-234989508D01*
X95603114Y-235013513D01*
X95679128Y-235066877D01*
X95792082Y-235146376D01*
X95937399Y-235248785D01*
X96110507Y-235370876D01*
X96306830Y-235509425D01*
X96521794Y-235661207D01*
X96750824Y-235822994D01*
X96829778Y-235878784D01*
X98029222Y-236726392D01*
X98043333Y-236200232D01*
X98057131Y-235685778D01*
X98354556Y-235685778D01*
X98376150Y-235704456D01*
X98434663Y-235748264D01*
X98520453Y-235810425D01*
X98623878Y-235884161D01*
X98735295Y-235962695D01*
X98845063Y-236039250D01*
X98943539Y-236107049D01*
X99021083Y-236159313D01*
X99068050Y-236189266D01*
X99077279Y-236193778D01*
X99101503Y-236178570D01*
X99163826Y-236136672D01*
X99256041Y-236073672D01*
X99369945Y-235995159D01*
X99431461Y-235952530D01*
X99552867Y-235866669D01*
X99655785Y-235790860D01*
X99732108Y-235731316D01*
X99773729Y-235694247D01*
X99779000Y-235686245D01*
X99757321Y-235662430D01*
X99698817Y-235613903D01*
X99613289Y-235547764D01*
X99510537Y-235471113D01*
X99400361Y-235391052D01*
X99292562Y-235314682D01*
X99196939Y-235249102D01*
X99123294Y-235201413D01*
X99081426Y-235178718D01*
X99077222Y-235177778D01*
X99047171Y-235193103D01*
X98981966Y-235234516D01*
X98891339Y-235295176D01*
X98785021Y-235368244D01*
X98672744Y-235446878D01*
X98564241Y-235524237D01*
X98469241Y-235593480D01*
X98397477Y-235647767D01*
X98358679Y-235680257D01*
X98354556Y-235685778D01*
X98057131Y-235685778D01*
X98057445Y-235674071D01*
X98563530Y-235312397D01*
X98711458Y-235207574D01*
X98843973Y-235115377D01*
X98954254Y-235040410D01*
X99035483Y-234987278D01*
X99080840Y-234960588D01*
X99087703Y-234958418D01*
X99115084Y-234976333D01*
G36*
X69897681Y-233097414D02*
G01*
X69966677Y-233141726D01*
X70073625Y-233213123D01*
X70214478Y-233308826D01*
X70385189Y-233426054D01*
X70581711Y-233562028D01*
X70799995Y-233713969D01*
X71035995Y-233879095D01*
X71285664Y-234054628D01*
X71297543Y-234063000D01*
X72698917Y-235050778D01*
X72699347Y-236435234D01*
X72699778Y-237819691D01*
X72248222Y-238137614D01*
X71796667Y-238455537D01*
X71796667Y-240960254D01*
X71302156Y-241314572D01*
X71154858Y-241418957D01*
X71021799Y-241511067D01*
X70910165Y-241586103D01*
X70827143Y-241639268D01*
X70779921Y-241665763D01*
X70772989Y-241667848D01*
X70745550Y-241651728D01*
X70675245Y-241605135D01*
X70565234Y-241530273D01*
X70418676Y-241429345D01*
X70238729Y-241304554D01*
X70028554Y-241158105D01*
X69791307Y-240992200D01*
X69530150Y-240809043D01*
X69248239Y-240610838D01*
X68948736Y-240399788D01*
X68634798Y-240178096D01*
X68459389Y-240054031D01*
X66180445Y-238441257D01*
X66180445Y-238193306D01*
X70047717Y-238193306D01*
X70069670Y-238213549D01*
X70128593Y-238258770D01*
X70214822Y-238322148D01*
X70318692Y-238396862D01*
X70430539Y-238476088D01*
X70540700Y-238553007D01*
X70639510Y-238620796D01*
X70717305Y-238672632D01*
X70764421Y-238701695D01*
X70773400Y-238705556D01*
X70799289Y-238690390D01*
X70863226Y-238648597D01*
X70956888Y-238585736D01*
X71071956Y-238507364D01*
X71135395Y-238463769D01*
X71257488Y-238378240D01*
X71361101Y-238303022D01*
X71438149Y-238244194D01*
X71480545Y-238207834D01*
X71486222Y-238199980D01*
X71464320Y-238176176D01*
X71405086Y-238128027D01*
X71318233Y-238062379D01*
X71213474Y-237986079D01*
X71100519Y-237905974D01*
X70989081Y-237828911D01*
X70888871Y-237761735D01*
X70809602Y-237711295D01*
X70760985Y-237684437D01*
X70751388Y-237681932D01*
X70717504Y-237700942D01*
X70650040Y-237745715D01*
X70558658Y-237809227D01*
X70453022Y-237884456D01*
X70342795Y-237964380D01*
X70237641Y-238041975D01*
X70147224Y-238110220D01*
X70081206Y-238162090D01*
X70049252Y-238190564D01*
X70047717Y-238193306D01*
X66180445Y-238193306D01*
X66180445Y-237549263D01*
X69162184Y-237549263D01*
X69176015Y-237571574D01*
X69229629Y-237619341D01*
X69315781Y-237686801D01*
X69427228Y-237768195D01*
X69510917Y-237826609D01*
X69883578Y-238082319D01*
X70168261Y-237885335D01*
X70287210Y-237802501D01*
X70396729Y-237725285D01*
X70484164Y-237662667D01*
X70534656Y-237625336D01*
X70616368Y-237562321D01*
X70409240Y-237416876D01*
X70290092Y-237332834D01*
X70164724Y-237243803D01*
X70057378Y-237167010D01*
X70043021Y-237156668D01*
X69883931Y-237041904D01*
X69535021Y-237284765D01*
X69411353Y-237371162D01*
X69303681Y-237446981D01*
X69220762Y-237506008D01*
X69171353Y-237542032D01*
X69162184Y-237549263D01*
X66180445Y-237549263D01*
X66180445Y-236935371D01*
X68241842Y-236935371D01*
X68613620Y-237197855D01*
X68740843Y-237285378D01*
X68853084Y-237358268D01*
X68941956Y-237411417D01*
X68999073Y-237439720D01*
X69015199Y-237442373D01*
X69047927Y-237420281D01*
X69117531Y-237371832D01*
X69214907Y-237303407D01*
X69330951Y-237221389D01*
X69376611Y-237189006D01*
X69494444Y-237103986D01*
X69593669Y-237029774D01*
X69666126Y-236972678D01*
X69703657Y-236939005D01*
X69707064Y-236933524D01*
X69685159Y-236912580D01*
X69626613Y-236866440D01*
X69541139Y-236802116D01*
X69438451Y-236726621D01*
X69328261Y-236646965D01*
X69220282Y-236570161D01*
X69124228Y-236503219D01*
X69049812Y-236453153D01*
X69006747Y-236426972D01*
X69003091Y-236425344D01*
X68973636Y-236437923D01*
X68906563Y-236478055D01*
X68810153Y-236540437D01*
X68692684Y-236619766D01*
X68611397Y-236676197D01*
X68241842Y-236935371D01*
X66180445Y-236935371D01*
X66180445Y-236303999D01*
X67361641Y-236303999D01*
X67550548Y-236439388D01*
X67667379Y-236523696D01*
X67792240Y-236614689D01*
X67898140Y-236692699D01*
X67898339Y-236692846D01*
X67982549Y-236752120D01*
X68052084Y-236795119D01*
X68092210Y-236812753D01*
X68092728Y-236812791D01*
X68128719Y-236797889D01*
X68199406Y-236756023D01*
X68294142Y-236693849D01*
X68389061Y-236627541D01*
X68504544Y-236544464D01*
X68612676Y-236466274D01*
X68699478Y-236403101D01*
X68742528Y-236371406D01*
X68829432Y-236306667D01*
X69145986Y-236306667D01*
X69168059Y-236327366D01*
X69227542Y-236372460D01*
X69314719Y-236435275D01*
X69419877Y-236509138D01*
X69533299Y-236587376D01*
X69645270Y-236663316D01*
X69746076Y-236730285D01*
X69826000Y-236781610D01*
X69875329Y-236810617D01*
X69885567Y-236814667D01*
X69915678Y-236799175D01*
X69983086Y-236756485D01*
X70079208Y-236692275D01*
X70195460Y-236612223D01*
X70258889Y-236567723D01*
X70380301Y-236481180D01*
X70483531Y-236405990D01*
X70560581Y-236348105D01*
X70603453Y-236313480D01*
X70609584Y-236306667D01*
X70588031Y-236286423D01*
X70528036Y-236239877D01*
X70437511Y-236172926D01*
X70324371Y-236091473D01*
X70256301Y-236043283D01*
X70111309Y-235944249D01*
X69993826Y-235870213D01*
X69909204Y-235824317D01*
X69862795Y-235809702D01*
X69859464Y-235810401D01*
X69820777Y-235832051D01*
X69749109Y-235877930D01*
X69654253Y-235941227D01*
X69546002Y-236015130D01*
X69434148Y-236092827D01*
X69328484Y-236167508D01*
X69238804Y-236232361D01*
X69174899Y-236280573D01*
X69146564Y-236305334D01*
X69145986Y-236306667D01*
X68829432Y-236306667D01*
X68835166Y-236302396D01*
X68488528Y-236059713D01*
X68364124Y-235974513D01*
X68253654Y-235902392D01*
X68166336Y-235849102D01*
X68111391Y-235820395D01*
X68099556Y-235817029D01*
X68062539Y-235832556D01*
X67988906Y-235875307D01*
X67887857Y-235939543D01*
X67768592Y-236019519D01*
X67709432Y-236060514D01*
X67361641Y-236303999D01*
X66180445Y-236303999D01*
X66180445Y-235686859D01*
X66514060Y-235686859D01*
X66517871Y-235696385D01*
X66569898Y-235741929D01*
X66651859Y-235805345D01*
X66753702Y-235879743D01*
X66865376Y-235958234D01*
X66976826Y-236033930D01*
X67078002Y-236099941D01*
X67158850Y-236149378D01*
X67209318Y-236175353D01*
X67219841Y-236177452D01*
X67255598Y-236157886D01*
X67328297Y-236112186D01*
X67428546Y-236046449D01*
X67546949Y-235966770D01*
X67593785Y-235934766D01*
X67713234Y-235851533D01*
X67814011Y-235778886D01*
X67887848Y-235722975D01*
X67926479Y-235689951D01*
X67930222Y-235684492D01*
X67919466Y-235671667D01*
X70066579Y-235671667D01*
X70087658Y-235693865D01*
X70145332Y-235741437D01*
X70230006Y-235807315D01*
X70332085Y-235884428D01*
X70441976Y-235965707D01*
X70550083Y-236044084D01*
X70646813Y-236112489D01*
X70722570Y-236163852D01*
X70767762Y-236191104D01*
X70775034Y-236193671D01*
X70799682Y-236178198D01*
X70862271Y-236135389D01*
X70954852Y-236070777D01*
X71069478Y-235989892D01*
X71147997Y-235934093D01*
X71271156Y-235845815D01*
X71375759Y-235769819D01*
X71454221Y-235711699D01*
X71498956Y-235677051D01*
X71506408Y-235669792D01*
X71482602Y-235652655D01*
X71420812Y-235608333D01*
X71328952Y-235542498D01*
X71214933Y-235460821D01*
X71138609Y-235406163D01*
X70776884Y-235147150D01*
X70422551Y-235395298D01*
X70299864Y-235482898D01*
X70195378Y-235560705D01*
X70117142Y-235622468D01*
X70073205Y-235661938D01*
X70066579Y-235671667D01*
X67919466Y-235671667D01*
X67907732Y-235657676D01*
X67846935Y-235608315D01*
X67757840Y-235543043D01*
X67650460Y-235468494D01*
X67534802Y-235391302D01*
X67420879Y-235318101D01*
X67318700Y-235255526D01*
X67238275Y-235210210D01*
X67189615Y-235188786D01*
X67181506Y-235188301D01*
X67144312Y-235209706D01*
X67070771Y-235257499D01*
X66970474Y-235325268D01*
X66853011Y-235406602D01*
X66813389Y-235434430D01*
X66676536Y-235533103D01*
X66583706Y-235605695D01*
X66530885Y-235655760D01*
X66514060Y-235686859D01*
X66180445Y-235686859D01*
X66180445Y-235669483D01*
X67038701Y-235065555D01*
X67389422Y-235065555D01*
X67392048Y-235074226D01*
X67423559Y-235099360D01*
X67489713Y-235148307D01*
X67580645Y-235214088D01*
X67686492Y-235289723D01*
X67797389Y-235368235D01*
X67903473Y-235442644D01*
X67994879Y-235505972D01*
X68061744Y-235551239D01*
X68094203Y-235571468D01*
X68095494Y-235571912D01*
X68120897Y-235556986D01*
X68184263Y-235515199D01*
X68277351Y-235452109D01*
X68391919Y-235373277D01*
X68456479Y-235328443D01*
X68579524Y-235241978D01*
X68685486Y-235166086D01*
X68765957Y-235106901D01*
X68812527Y-235070558D01*
X68820453Y-235062898D01*
X68805362Y-235043450D01*
X70917230Y-235043450D01*
X71067670Y-235150552D01*
X71162944Y-235218937D01*
X71281583Y-235304880D01*
X71401552Y-235392402D01*
X71429778Y-235413104D01*
X71526237Y-235479921D01*
X71608535Y-235529575D01*
X71664561Y-235555097D01*
X71679115Y-235556577D01*
X71714505Y-235536512D01*
X71786331Y-235489438D01*
X71885406Y-235421583D01*
X72002545Y-235339175D01*
X72053060Y-235303059D01*
X72171480Y-235217361D01*
X72271631Y-235143666D01*
X72345464Y-235087994D01*
X72384930Y-235056364D01*
X72389333Y-235051602D01*
X72367448Y-235032918D01*
X72306988Y-234987712D01*
X72215743Y-234921649D01*
X72101505Y-234840394D01*
X72021434Y-234784092D01*
X71653534Y-234526497D01*
X71285382Y-234784973D01*
X70917230Y-235043450D01*
X68805362Y-235043450D01*
X68803037Y-235040455D01*
X68746488Y-234992101D01*
X68658307Y-234923726D01*
X68545994Y-234841223D01*
X68466524Y-234784855D01*
X68099556Y-234527912D01*
X67730823Y-234786090D01*
X67579701Y-234894230D01*
X67474192Y-234975353D01*
X67411649Y-235031710D01*
X67389422Y-235065555D01*
X67038701Y-235065555D01*
X67954166Y-234421371D01*
X68239849Y-234421371D01*
X68614202Y-234683671D01*
X68741916Y-234771003D01*
X68854449Y-234843898D01*
X68943454Y-234897268D01*
X69000581Y-234926024D01*
X69016778Y-234929042D01*
X69048926Y-234907510D01*
X69118254Y-234859743D01*
X69215772Y-234791976D01*
X69332489Y-234710443D01*
X69383667Y-234674580D01*
X69503720Y-234590281D01*
X69606277Y-234518085D01*
X69682970Y-234463896D01*
X69725432Y-234433618D01*
X69731098Y-234429407D01*
X69726331Y-234424839D01*
X70067785Y-234424839D01*
X70091125Y-234448561D01*
X70152486Y-234498562D01*
X70243776Y-234568565D01*
X70356902Y-234652294D01*
X70419399Y-234697542D01*
X70552885Y-234792908D01*
X70648907Y-234859022D01*
X70715558Y-234899957D01*
X70760930Y-234919787D01*
X70793115Y-234922584D01*
X70820206Y-234912423D01*
X70832034Y-234905257D01*
X70879042Y-234873495D01*
X70960999Y-234816394D01*
X71067041Y-234741584D01*
X71186303Y-234656696D01*
X71207057Y-234641851D01*
X71516601Y-234420262D01*
X71162152Y-234171076D01*
X71037995Y-234084311D01*
X70929723Y-234009630D01*
X70845897Y-233952860D01*
X70795078Y-233919829D01*
X70784494Y-233913955D01*
X70753849Y-233926357D01*
X70688412Y-233965799D01*
X70597886Y-234025366D01*
X70491975Y-234098140D01*
X70380380Y-234177206D01*
X70272805Y-234255647D01*
X70178952Y-234326547D01*
X70108524Y-234382989D01*
X70071223Y-234418058D01*
X70067785Y-234424839D01*
X69726331Y-234424839D01*
X69712645Y-234411726D01*
X69656897Y-234368845D01*
X69573203Y-234307350D01*
X69470912Y-234233826D01*
X69359372Y-234154859D01*
X69247933Y-234077034D01*
X69145943Y-234006937D01*
X69062753Y-233951153D01*
X69007709Y-233916267D01*
X68990573Y-233907778D01*
X68962748Y-233923163D01*
X68897068Y-233965651D01*
X68801754Y-234029744D01*
X68685027Y-234109943D01*
X68606608Y-234164575D01*
X68239849Y-234421371D01*
X67954166Y-234421371D01*
X68012821Y-234380098D01*
X68299825Y-234178268D01*
X68573658Y-233985944D01*
X68822119Y-233811672D01*
X69177932Y-233811672D01*
X69180369Y-233814638D01*
X69217954Y-233845406D01*
X69289138Y-233898297D01*
X69383872Y-233966339D01*
X69492111Y-234042563D01*
X69603808Y-234119999D01*
X69708915Y-234191676D01*
X69797387Y-234250624D01*
X69859175Y-234289873D01*
X69883701Y-234302594D01*
X69912636Y-234287109D01*
X69978701Y-234244288D01*
X70073316Y-234179911D01*
X70187901Y-234099757D01*
X70243656Y-234060107D01*
X70363952Y-233973474D01*
X70467081Y-233897955D01*
X70544655Y-233839789D01*
X70588287Y-233805218D01*
X70594595Y-233799051D01*
X70576747Y-233777321D01*
X70520161Y-233729190D01*
X70432355Y-233660606D01*
X70320850Y-233577512D01*
X70245215Y-233522818D01*
X69884597Y-233264858D01*
X69515501Y-233522818D01*
X69372218Y-233624520D01*
X69271659Y-233700043D01*
X69208984Y-233753600D01*
X69179355Y-233789405D01*
X69177932Y-233811672D01*
X68822119Y-233811672D01*
X68830792Y-233805589D01*
X69067697Y-233639667D01*
X69280843Y-233490644D01*
X69466702Y-233360983D01*
X69621743Y-233253148D01*
X69742437Y-233169604D01*
X69825254Y-233112816D01*
X69866665Y-233085246D01*
X69870684Y-233082967D01*
X69897681Y-233097414D01*
G37*
X69897681Y-233097414D02*
X69966677Y-233141726D01*
X70073625Y-233213123D01*
X70214478Y-233308826D01*
X70385189Y-233426054D01*
X70581711Y-233562028D01*
X70799995Y-233713969D01*
X71035995Y-233879095D01*
X71285664Y-234054628D01*
X71297543Y-234063000D01*
X72698917Y-235050778D01*
X72699347Y-236435234D01*
X72699778Y-237819691D01*
X72248222Y-238137614D01*
X71796667Y-238455537D01*
X71796667Y-240960254D01*
X71302156Y-241314572D01*
X71154858Y-241418957D01*
X71021799Y-241511067D01*
X70910165Y-241586103D01*
X70827143Y-241639268D01*
X70779921Y-241665763D01*
X70772989Y-241667848D01*
X70745550Y-241651728D01*
X70675245Y-241605135D01*
X70565234Y-241530273D01*
X70418676Y-241429345D01*
X70238729Y-241304554D01*
X70028554Y-241158105D01*
X69791307Y-240992200D01*
X69530150Y-240809043D01*
X69248239Y-240610838D01*
X68948736Y-240399788D01*
X68634798Y-240178096D01*
X68459389Y-240054031D01*
X66180445Y-238441257D01*
X66180445Y-238193306D01*
X70047717Y-238193306D01*
X70069670Y-238213549D01*
X70128593Y-238258770D01*
X70214822Y-238322148D01*
X70318692Y-238396862D01*
X70430539Y-238476088D01*
X70540700Y-238553007D01*
X70639510Y-238620796D01*
X70717305Y-238672632D01*
X70764421Y-238701695D01*
X70773400Y-238705556D01*
X70799289Y-238690390D01*
X70863226Y-238648597D01*
X70956888Y-238585736D01*
X71071956Y-238507364D01*
X71135395Y-238463769D01*
X71257488Y-238378240D01*
X71361101Y-238303022D01*
X71438149Y-238244194D01*
X71480545Y-238207834D01*
X71486222Y-238199980D01*
X71464320Y-238176176D01*
X71405086Y-238128027D01*
X71318233Y-238062379D01*
X71213474Y-237986079D01*
X71100519Y-237905974D01*
X70989081Y-237828911D01*
X70888871Y-237761735D01*
X70809602Y-237711295D01*
X70760985Y-237684437D01*
X70751388Y-237681932D01*
X70717504Y-237700942D01*
X70650040Y-237745715D01*
X70558658Y-237809227D01*
X70453022Y-237884456D01*
X70342795Y-237964380D01*
X70237641Y-238041975D01*
X70147224Y-238110220D01*
X70081206Y-238162090D01*
X70049252Y-238190564D01*
X70047717Y-238193306D01*
X66180445Y-238193306D01*
X66180445Y-237549263D01*
X69162184Y-237549263D01*
X69176015Y-237571574D01*
X69229629Y-237619341D01*
X69315781Y-237686801D01*
X69427228Y-237768195D01*
X69510917Y-237826609D01*
X69883578Y-238082319D01*
X70168261Y-237885335D01*
X70287210Y-237802501D01*
X70396729Y-237725285D01*
X70484164Y-237662667D01*
X70534656Y-237625336D01*
X70616368Y-237562321D01*
X70409240Y-237416876D01*
X70290092Y-237332834D01*
X70164724Y-237243803D01*
X70057378Y-237167010D01*
X70043021Y-237156668D01*
X69883931Y-237041904D01*
X69535021Y-237284765D01*
X69411353Y-237371162D01*
X69303681Y-237446981D01*
X69220762Y-237506008D01*
X69171353Y-237542032D01*
X69162184Y-237549263D01*
X66180445Y-237549263D01*
X66180445Y-236935371D01*
X68241842Y-236935371D01*
X68613620Y-237197855D01*
X68740843Y-237285378D01*
X68853084Y-237358268D01*
X68941956Y-237411417D01*
X68999073Y-237439720D01*
X69015199Y-237442373D01*
X69047927Y-237420281D01*
X69117531Y-237371832D01*
X69214907Y-237303407D01*
X69330951Y-237221389D01*
X69376611Y-237189006D01*
X69494444Y-237103986D01*
X69593669Y-237029774D01*
X69666126Y-236972678D01*
X69703657Y-236939005D01*
X69707064Y-236933524D01*
X69685159Y-236912580D01*
X69626613Y-236866440D01*
X69541139Y-236802116D01*
X69438451Y-236726621D01*
X69328261Y-236646965D01*
X69220282Y-236570161D01*
X69124228Y-236503219D01*
X69049812Y-236453153D01*
X69006747Y-236426972D01*
X69003091Y-236425344D01*
X68973636Y-236437923D01*
X68906563Y-236478055D01*
X68810153Y-236540437D01*
X68692684Y-236619766D01*
X68611397Y-236676197D01*
X68241842Y-236935371D01*
X66180445Y-236935371D01*
X66180445Y-236303999D01*
X67361641Y-236303999D01*
X67550548Y-236439388D01*
X67667379Y-236523696D01*
X67792240Y-236614689D01*
X67898140Y-236692699D01*
X67898339Y-236692846D01*
X67982549Y-236752120D01*
X68052084Y-236795119D01*
X68092210Y-236812753D01*
X68092728Y-236812791D01*
X68128719Y-236797889D01*
X68199406Y-236756023D01*
X68294142Y-236693849D01*
X68389061Y-236627541D01*
X68504544Y-236544464D01*
X68612676Y-236466274D01*
X68699478Y-236403101D01*
X68742528Y-236371406D01*
X68829432Y-236306667D01*
X69145986Y-236306667D01*
X69168059Y-236327366D01*
X69227542Y-236372460D01*
X69314719Y-236435275D01*
X69419877Y-236509138D01*
X69533299Y-236587376D01*
X69645270Y-236663316D01*
X69746076Y-236730285D01*
X69826000Y-236781610D01*
X69875329Y-236810617D01*
X69885567Y-236814667D01*
X69915678Y-236799175D01*
X69983086Y-236756485D01*
X70079208Y-236692275D01*
X70195460Y-236612223D01*
X70258889Y-236567723D01*
X70380301Y-236481180D01*
X70483531Y-236405990D01*
X70560581Y-236348105D01*
X70603453Y-236313480D01*
X70609584Y-236306667D01*
X70588031Y-236286423D01*
X70528036Y-236239877D01*
X70437511Y-236172926D01*
X70324371Y-236091473D01*
X70256301Y-236043283D01*
X70111309Y-235944249D01*
X69993826Y-235870213D01*
X69909204Y-235824317D01*
X69862795Y-235809702D01*
X69859464Y-235810401D01*
X69820777Y-235832051D01*
X69749109Y-235877930D01*
X69654253Y-235941227D01*
X69546002Y-236015130D01*
X69434148Y-236092827D01*
X69328484Y-236167508D01*
X69238804Y-236232361D01*
X69174899Y-236280573D01*
X69146564Y-236305334D01*
X69145986Y-236306667D01*
X68829432Y-236306667D01*
X68835166Y-236302396D01*
X68488528Y-236059713D01*
X68364124Y-235974513D01*
X68253654Y-235902392D01*
X68166336Y-235849102D01*
X68111391Y-235820395D01*
X68099556Y-235817029D01*
X68062539Y-235832556D01*
X67988906Y-235875307D01*
X67887857Y-235939543D01*
X67768592Y-236019519D01*
X67709432Y-236060514D01*
X67361641Y-236303999D01*
X66180445Y-236303999D01*
X66180445Y-235686859D01*
X66514060Y-235686859D01*
X66517871Y-235696385D01*
X66569898Y-235741929D01*
X66651859Y-235805345D01*
X66753702Y-235879743D01*
X66865376Y-235958234D01*
X66976826Y-236033930D01*
X67078002Y-236099941D01*
X67158850Y-236149378D01*
X67209318Y-236175353D01*
X67219841Y-236177452D01*
X67255598Y-236157886D01*
X67328297Y-236112186D01*
X67428546Y-236046449D01*
X67546949Y-235966770D01*
X67593785Y-235934766D01*
X67713234Y-235851533D01*
X67814011Y-235778886D01*
X67887848Y-235722975D01*
X67926479Y-235689951D01*
X67930222Y-235684492D01*
X67919466Y-235671667D01*
X70066579Y-235671667D01*
X70087658Y-235693865D01*
X70145332Y-235741437D01*
X70230006Y-235807315D01*
X70332085Y-235884428D01*
X70441976Y-235965707D01*
X70550083Y-236044084D01*
X70646813Y-236112489D01*
X70722570Y-236163852D01*
X70767762Y-236191104D01*
X70775034Y-236193671D01*
X70799682Y-236178198D01*
X70862271Y-236135389D01*
X70954852Y-236070777D01*
X71069478Y-235989892D01*
X71147997Y-235934093D01*
X71271156Y-235845815D01*
X71375759Y-235769819D01*
X71454221Y-235711699D01*
X71498956Y-235677051D01*
X71506408Y-235669792D01*
X71482602Y-235652655D01*
X71420812Y-235608333D01*
X71328952Y-235542498D01*
X71214933Y-235460821D01*
X71138609Y-235406163D01*
X70776884Y-235147150D01*
X70422551Y-235395298D01*
X70299864Y-235482898D01*
X70195378Y-235560705D01*
X70117142Y-235622468D01*
X70073205Y-235661938D01*
X70066579Y-235671667D01*
X67919466Y-235671667D01*
X67907732Y-235657676D01*
X67846935Y-235608315D01*
X67757840Y-235543043D01*
X67650460Y-235468494D01*
X67534802Y-235391302D01*
X67420879Y-235318101D01*
X67318700Y-235255526D01*
X67238275Y-235210210D01*
X67189615Y-235188786D01*
X67181506Y-235188301D01*
X67144312Y-235209706D01*
X67070771Y-235257499D01*
X66970474Y-235325268D01*
X66853011Y-235406602D01*
X66813389Y-235434430D01*
X66676536Y-235533103D01*
X66583706Y-235605695D01*
X66530885Y-235655760D01*
X66514060Y-235686859D01*
X66180445Y-235686859D01*
X66180445Y-235669483D01*
X67038701Y-235065555D01*
X67389422Y-235065555D01*
X67392048Y-235074226D01*
X67423559Y-235099360D01*
X67489713Y-235148307D01*
X67580645Y-235214088D01*
X67686492Y-235289723D01*
X67797389Y-235368235D01*
X67903473Y-235442644D01*
X67994879Y-235505972D01*
X68061744Y-235551239D01*
X68094203Y-235571468D01*
X68095494Y-235571912D01*
X68120897Y-235556986D01*
X68184263Y-235515199D01*
X68277351Y-235452109D01*
X68391919Y-235373277D01*
X68456479Y-235328443D01*
X68579524Y-235241978D01*
X68685486Y-235166086D01*
X68765957Y-235106901D01*
X68812527Y-235070558D01*
X68820453Y-235062898D01*
X68805362Y-235043450D01*
X70917230Y-235043450D01*
X71067670Y-235150552D01*
X71162944Y-235218937D01*
X71281583Y-235304880D01*
X71401552Y-235392402D01*
X71429778Y-235413104D01*
X71526237Y-235479921D01*
X71608535Y-235529575D01*
X71664561Y-235555097D01*
X71679115Y-235556577D01*
X71714505Y-235536512D01*
X71786331Y-235489438D01*
X71885406Y-235421583D01*
X72002545Y-235339175D01*
X72053060Y-235303059D01*
X72171480Y-235217361D01*
X72271631Y-235143666D01*
X72345464Y-235087994D01*
X72384930Y-235056364D01*
X72389333Y-235051602D01*
X72367448Y-235032918D01*
X72306988Y-234987712D01*
X72215743Y-234921649D01*
X72101505Y-234840394D01*
X72021434Y-234784092D01*
X71653534Y-234526497D01*
X71285382Y-234784973D01*
X70917230Y-235043450D01*
X68805362Y-235043450D01*
X68803037Y-235040455D01*
X68746488Y-234992101D01*
X68658307Y-234923726D01*
X68545994Y-234841223D01*
X68466524Y-234784855D01*
X68099556Y-234527912D01*
X67730823Y-234786090D01*
X67579701Y-234894230D01*
X67474192Y-234975353D01*
X67411649Y-235031710D01*
X67389422Y-235065555D01*
X67038701Y-235065555D01*
X67954166Y-234421371D01*
X68239849Y-234421371D01*
X68614202Y-234683671D01*
X68741916Y-234771003D01*
X68854449Y-234843898D01*
X68943454Y-234897268D01*
X69000581Y-234926024D01*
X69016778Y-234929042D01*
X69048926Y-234907510D01*
X69118254Y-234859743D01*
X69215772Y-234791976D01*
X69332489Y-234710443D01*
X69383667Y-234674580D01*
X69503720Y-234590281D01*
X69606277Y-234518085D01*
X69682970Y-234463896D01*
X69725432Y-234433618D01*
X69731098Y-234429407D01*
X69726331Y-234424839D01*
X70067785Y-234424839D01*
X70091125Y-234448561D01*
X70152486Y-234498562D01*
X70243776Y-234568565D01*
X70356902Y-234652294D01*
X70419399Y-234697542D01*
X70552885Y-234792908D01*
X70648907Y-234859022D01*
X70715558Y-234899957D01*
X70760930Y-234919787D01*
X70793115Y-234922584D01*
X70820206Y-234912423D01*
X70832034Y-234905257D01*
X70879042Y-234873495D01*
X70960999Y-234816394D01*
X71067041Y-234741584D01*
X71186303Y-234656696D01*
X71207057Y-234641851D01*
X71516601Y-234420262D01*
X71162152Y-234171076D01*
X71037995Y-234084311D01*
X70929723Y-234009630D01*
X70845897Y-233952860D01*
X70795078Y-233919829D01*
X70784494Y-233913955D01*
X70753849Y-233926357D01*
X70688412Y-233965799D01*
X70597886Y-234025366D01*
X70491975Y-234098140D01*
X70380380Y-234177206D01*
X70272805Y-234255647D01*
X70178952Y-234326547D01*
X70108524Y-234382989D01*
X70071223Y-234418058D01*
X70067785Y-234424839D01*
X69726331Y-234424839D01*
X69712645Y-234411726D01*
X69656897Y-234368845D01*
X69573203Y-234307350D01*
X69470912Y-234233826D01*
X69359372Y-234154859D01*
X69247933Y-234077034D01*
X69145943Y-234006937D01*
X69062753Y-233951153D01*
X69007709Y-233916267D01*
X68990573Y-233907778D01*
X68962748Y-233923163D01*
X68897068Y-233965651D01*
X68801754Y-234029744D01*
X68685027Y-234109943D01*
X68606608Y-234164575D01*
X68239849Y-234421371D01*
X67954166Y-234421371D01*
X68012821Y-234380098D01*
X68299825Y-234178268D01*
X68573658Y-233985944D01*
X68822119Y-233811672D01*
X69177932Y-233811672D01*
X69180369Y-233814638D01*
X69217954Y-233845406D01*
X69289138Y-233898297D01*
X69383872Y-233966339D01*
X69492111Y-234042563D01*
X69603808Y-234119999D01*
X69708915Y-234191676D01*
X69797387Y-234250624D01*
X69859175Y-234289873D01*
X69883701Y-234302594D01*
X69912636Y-234287109D01*
X69978701Y-234244288D01*
X70073316Y-234179911D01*
X70187901Y-234099757D01*
X70243656Y-234060107D01*
X70363952Y-233973474D01*
X70467081Y-233897955D01*
X70544655Y-233839789D01*
X70588287Y-233805218D01*
X70594595Y-233799051D01*
X70576747Y-233777321D01*
X70520161Y-233729190D01*
X70432355Y-233660606D01*
X70320850Y-233577512D01*
X70245215Y-233522818D01*
X69884597Y-233264858D01*
X69515501Y-233522818D01*
X69372218Y-233624520D01*
X69271659Y-233700043D01*
X69208984Y-233753600D01*
X69179355Y-233789405D01*
X69177932Y-233811672D01*
X68822119Y-233811672D01*
X68830792Y-233805589D01*
X69067697Y-233639667D01*
X69280843Y-233490644D01*
X69466702Y-233360983D01*
X69621743Y-233253148D01*
X69742437Y-233169604D01*
X69825254Y-233112816D01*
X69866665Y-233085246D01*
X69870684Y-233082967D01*
X69897681Y-233097414D01*
G36*
X103759214Y-234994289D02*
G01*
X103831526Y-235043687D01*
X103935176Y-235115060D01*
X104062683Y-235203252D01*
X104206564Y-235303108D01*
X104247374Y-235331487D01*
X104732000Y-235668641D01*
X104732000Y-236728711D01*
X105091833Y-236474563D01*
X105216772Y-236387185D01*
X105325936Y-236312469D01*
X105410876Y-236256071D01*
X105463144Y-236223647D01*
X105475052Y-236218063D01*
X105501681Y-236233480D01*
X105570317Y-236278722D01*
X105676910Y-236350985D01*
X105817409Y-236447466D01*
X105987764Y-236565361D01*
X106183922Y-236701867D01*
X106401834Y-236854179D01*
X106637449Y-237019495D01*
X106886716Y-237195010D01*
X106893192Y-237199578D01*
X108287947Y-238183445D01*
X108287974Y-239570583D01*
X108288000Y-240957720D01*
X107801167Y-241303603D01*
X107654928Y-241407507D01*
X107523569Y-241500848D01*
X107414314Y-241578493D01*
X107334386Y-241635308D01*
X107291009Y-241666160D01*
X107286111Y-241669650D01*
X107258663Y-241657399D01*
X107189295Y-241615130D01*
X107082052Y-241545586D01*
X106940977Y-241451510D01*
X106770114Y-241335645D01*
X106573508Y-241200736D01*
X106355203Y-241049525D01*
X106119242Y-240884755D01*
X105869669Y-240709171D01*
X105854744Y-240698630D01*
X104451598Y-239707445D01*
X104443632Y-239180213D01*
X104435667Y-238652982D01*
X104074721Y-238907639D01*
X103931636Y-239005689D01*
X103813790Y-239080579D01*
X103727135Y-239128788D01*
X103677618Y-239146796D01*
X103671704Y-239146153D01*
X103636868Y-239125449D01*
X103563751Y-239076905D01*
X103459863Y-239005683D01*
X103332712Y-238916946D01*
X103189809Y-238815856D01*
X103150705Y-238787975D01*
X102671778Y-238445943D01*
X102671778Y-238190196D01*
X106511691Y-238190196D01*
X106870679Y-238445445D01*
X106995284Y-238533201D01*
X107104098Y-238608249D01*
X107188703Y-238664909D01*
X107240683Y-238697499D01*
X107252464Y-238703125D01*
X107282314Y-238688494D01*
X107349463Y-238646562D01*
X107445357Y-238582942D01*
X107561440Y-238503249D01*
X107625112Y-238458612D01*
X107746637Y-238371730D01*
X107849998Y-238295736D01*
X107927166Y-238236698D01*
X107970115Y-238200686D01*
X107976259Y-238193125D01*
X107954921Y-238171238D01*
X107895188Y-238122958D01*
X107804885Y-238054290D01*
X107691835Y-237971243D01*
X107619693Y-237919399D01*
X107261830Y-237664214D01*
X106991748Y-237851844D01*
X106872323Y-237935022D01*
X106758920Y-238014380D01*
X106666017Y-238079765D01*
X106616679Y-238114834D01*
X106511691Y-238190196D01*
X102671778Y-238190196D01*
X102671778Y-237586101D01*
X105663812Y-237586101D01*
X105669373Y-237594513D01*
X105699860Y-237618389D01*
X105765946Y-237666804D01*
X105857339Y-237732495D01*
X105963750Y-237808194D01*
X106074889Y-237886638D01*
X106180466Y-237960560D01*
X106270191Y-238022695D01*
X106333773Y-238065779D01*
X106360268Y-238082316D01*
X106383889Y-238067675D01*
X106445537Y-238025720D01*
X106537304Y-237961933D01*
X106651278Y-237881796D01*
X106727157Y-237828057D01*
X106851125Y-237739897D01*
X106957885Y-237663715D01*
X107039404Y-237605263D01*
X107087648Y-237570295D01*
X107097254Y-237563007D01*
X107078335Y-237544976D01*
X107020445Y-237500605D01*
X106931170Y-237435464D01*
X106818097Y-237355124D01*
X106737240Y-237298647D01*
X106368528Y-237042728D01*
X106000804Y-237300618D01*
X105860022Y-237400663D01*
X105761220Y-237474545D01*
X105699109Y-237526953D01*
X105668402Y-237562575D01*
X105663812Y-237586101D01*
X102671778Y-237586101D01*
X102671778Y-236944841D01*
X104739878Y-236944841D01*
X104765444Y-236963782D01*
X104829180Y-237009233D01*
X104922944Y-237075437D01*
X105038594Y-237156636D01*
X105112649Y-237208443D01*
X105474960Y-237461586D01*
X105745536Y-237273613D01*
X105864947Y-237190446D01*
X105978231Y-237111177D01*
X106070972Y-237045913D01*
X106120421Y-237010769D01*
X106224730Y-236935899D01*
X105868438Y-236684783D01*
X105744155Y-236597572D01*
X105635930Y-236522354D01*
X105552235Y-236464961D01*
X105501542Y-236431225D01*
X105490872Y-236424896D01*
X105462648Y-236437048D01*
X105399105Y-236475329D01*
X105309594Y-236533262D01*
X105203468Y-236604374D01*
X105090080Y-236682190D01*
X104978780Y-236760235D01*
X104878921Y-236832034D01*
X104799855Y-236891113D01*
X104750933Y-236930996D01*
X104739878Y-236944841D01*
X102671778Y-236944841D01*
X102671778Y-235677548D01*
X102964793Y-235677548D01*
X102992512Y-235699251D01*
X103055685Y-235745726D01*
X103144684Y-235810120D01*
X103249885Y-235885580D01*
X103361661Y-235965254D01*
X103470385Y-236042288D01*
X103566431Y-236109831D01*
X103640174Y-236161028D01*
X103681987Y-236189028D01*
X103687778Y-236192233D01*
X103714554Y-236177308D01*
X103779034Y-236135286D01*
X103872902Y-236071758D01*
X103987846Y-235992313D01*
X104052957Y-235946727D01*
X104174665Y-235859307D01*
X104277809Y-235781698D01*
X104354417Y-235720180D01*
X104396515Y-235681033D01*
X104402126Y-235671667D01*
X104379476Y-235646497D01*
X104318286Y-235595733D01*
X104226615Y-235525628D01*
X104112523Y-235442436D01*
X104046194Y-235395508D01*
X103692161Y-235147571D01*
X103325641Y-235409619D01*
X103202128Y-235498513D01*
X103097090Y-235575235D01*
X103018092Y-235634165D01*
X102972703Y-235669686D01*
X102964793Y-235677548D01*
X102671778Y-235677548D01*
X102671778Y-235666967D01*
X103180235Y-235308337D01*
X103374347Y-235173665D01*
X103526901Y-235072749D01*
X103637220Y-235006006D01*
X103704629Y-234973852D01*
X103725719Y-234972020D01*
X103759214Y-234994289D01*
G37*
X103759214Y-234994289D02*
X103831526Y-235043687D01*
X103935176Y-235115060D01*
X104062683Y-235203252D01*
X104206564Y-235303108D01*
X104247374Y-235331487D01*
X104732000Y-235668641D01*
X104732000Y-236728711D01*
X105091833Y-236474563D01*
X105216772Y-236387185D01*
X105325936Y-236312469D01*
X105410876Y-236256071D01*
X105463144Y-236223647D01*
X105475052Y-236218063D01*
X105501681Y-236233480D01*
X105570317Y-236278722D01*
X105676910Y-236350985D01*
X105817409Y-236447466D01*
X105987764Y-236565361D01*
X106183922Y-236701867D01*
X106401834Y-236854179D01*
X106637449Y-237019495D01*
X106886716Y-237195010D01*
X106893192Y-237199578D01*
X108287947Y-238183445D01*
X108287974Y-239570583D01*
X108288000Y-240957720D01*
X107801167Y-241303603D01*
X107654928Y-241407507D01*
X107523569Y-241500848D01*
X107414314Y-241578493D01*
X107334386Y-241635308D01*
X107291009Y-241666160D01*
X107286111Y-241669650D01*
X107258663Y-241657399D01*
X107189295Y-241615130D01*
X107082052Y-241545586D01*
X106940977Y-241451510D01*
X106770114Y-241335645D01*
X106573508Y-241200736D01*
X106355203Y-241049525D01*
X106119242Y-240884755D01*
X105869669Y-240709171D01*
X105854744Y-240698630D01*
X104451598Y-239707445D01*
X104443632Y-239180213D01*
X104435667Y-238652982D01*
X104074721Y-238907639D01*
X103931636Y-239005689D01*
X103813790Y-239080579D01*
X103727135Y-239128788D01*
X103677618Y-239146796D01*
X103671704Y-239146153D01*
X103636868Y-239125449D01*
X103563751Y-239076905D01*
X103459863Y-239005683D01*
X103332712Y-238916946D01*
X103189809Y-238815856D01*
X103150705Y-238787975D01*
X102671778Y-238445943D01*
X102671778Y-238190196D01*
X106511691Y-238190196D01*
X106870679Y-238445445D01*
X106995284Y-238533201D01*
X107104098Y-238608249D01*
X107188703Y-238664909D01*
X107240683Y-238697499D01*
X107252464Y-238703125D01*
X107282314Y-238688494D01*
X107349463Y-238646562D01*
X107445357Y-238582942D01*
X107561440Y-238503249D01*
X107625112Y-238458612D01*
X107746637Y-238371730D01*
X107849998Y-238295736D01*
X107927166Y-238236698D01*
X107970115Y-238200686D01*
X107976259Y-238193125D01*
X107954921Y-238171238D01*
X107895188Y-238122958D01*
X107804885Y-238054290D01*
X107691835Y-237971243D01*
X107619693Y-237919399D01*
X107261830Y-237664214D01*
X106991748Y-237851844D01*
X106872323Y-237935022D01*
X106758920Y-238014380D01*
X106666017Y-238079765D01*
X106616679Y-238114834D01*
X106511691Y-238190196D01*
X102671778Y-238190196D01*
X102671778Y-237586101D01*
X105663812Y-237586101D01*
X105669373Y-237594513D01*
X105699860Y-237618389D01*
X105765946Y-237666804D01*
X105857339Y-237732495D01*
X105963750Y-237808194D01*
X106074889Y-237886638D01*
X106180466Y-237960560D01*
X106270191Y-238022695D01*
X106333773Y-238065779D01*
X106360268Y-238082316D01*
X106383889Y-238067675D01*
X106445537Y-238025720D01*
X106537304Y-237961933D01*
X106651278Y-237881796D01*
X106727157Y-237828057D01*
X106851125Y-237739897D01*
X106957885Y-237663715D01*
X107039404Y-237605263D01*
X107087648Y-237570295D01*
X107097254Y-237563007D01*
X107078335Y-237544976D01*
X107020445Y-237500605D01*
X106931170Y-237435464D01*
X106818097Y-237355124D01*
X106737240Y-237298647D01*
X106368528Y-237042728D01*
X106000804Y-237300618D01*
X105860022Y-237400663D01*
X105761220Y-237474545D01*
X105699109Y-237526953D01*
X105668402Y-237562575D01*
X105663812Y-237586101D01*
X102671778Y-237586101D01*
X102671778Y-236944841D01*
X104739878Y-236944841D01*
X104765444Y-236963782D01*
X104829180Y-237009233D01*
X104922944Y-237075437D01*
X105038594Y-237156636D01*
X105112649Y-237208443D01*
X105474960Y-237461586D01*
X105745536Y-237273613D01*
X105864947Y-237190446D01*
X105978231Y-237111177D01*
X106070972Y-237045913D01*
X106120421Y-237010769D01*
X106224730Y-236935899D01*
X105868438Y-236684783D01*
X105744155Y-236597572D01*
X105635930Y-236522354D01*
X105552235Y-236464961D01*
X105501542Y-236431225D01*
X105490872Y-236424896D01*
X105462648Y-236437048D01*
X105399105Y-236475329D01*
X105309594Y-236533262D01*
X105203468Y-236604374D01*
X105090080Y-236682190D01*
X104978780Y-236760235D01*
X104878921Y-236832034D01*
X104799855Y-236891113D01*
X104750933Y-236930996D01*
X104739878Y-236944841D01*
X102671778Y-236944841D01*
X102671778Y-235677548D01*
X102964793Y-235677548D01*
X102992512Y-235699251D01*
X103055685Y-235745726D01*
X103144684Y-235810120D01*
X103249885Y-235885580D01*
X103361661Y-235965254D01*
X103470385Y-236042288D01*
X103566431Y-236109831D01*
X103640174Y-236161028D01*
X103681987Y-236189028D01*
X103687778Y-236192233D01*
X103714554Y-236177308D01*
X103779034Y-236135286D01*
X103872902Y-236071758D01*
X103987846Y-235992313D01*
X104052957Y-235946727D01*
X104174665Y-235859307D01*
X104277809Y-235781698D01*
X104354417Y-235720180D01*
X104396515Y-235681033D01*
X104402126Y-235671667D01*
X104379476Y-235646497D01*
X104318286Y-235595733D01*
X104226615Y-235525628D01*
X104112523Y-235442436D01*
X104046194Y-235395508D01*
X103692161Y-235147571D01*
X103325641Y-235409619D01*
X103202128Y-235498513D01*
X103097090Y-235575235D01*
X103018092Y-235634165D01*
X102972703Y-235669686D01*
X102964793Y-235677548D01*
X102671778Y-235677548D01*
X102671778Y-235666967D01*
X103180235Y-235308337D01*
X103374347Y-235173665D01*
X103526901Y-235072749D01*
X103637220Y-235006006D01*
X103704629Y-234973852D01*
X103725719Y-234972020D01*
X103759214Y-234994289D01*
G36*
X83211595Y-236565592D02*
G01*
X85510608Y-238183445D01*
X85511637Y-239568829D01*
X85512667Y-240954214D01*
X85152833Y-241210589D01*
X85013775Y-241309731D01*
X84876982Y-241407373D01*
X84755428Y-241494248D01*
X84662085Y-241561087D01*
X84637301Y-241578880D01*
X84481602Y-241690796D01*
X82308968Y-240155738D01*
X81993260Y-239932630D01*
X81688498Y-239717164D01*
X81398128Y-239511784D01*
X81125598Y-239318932D01*
X80874354Y-239141049D01*
X80647844Y-238980577D01*
X80449513Y-238839960D01*
X80282810Y-238721638D01*
X80151180Y-238628054D01*
X80058071Y-238561650D01*
X80006929Y-238524869D01*
X80002010Y-238521259D01*
X79867686Y-238421839D01*
X79868955Y-238183488D01*
X83740622Y-238183488D01*
X83758972Y-238201180D01*
X83814504Y-238244181D01*
X83897864Y-238305856D01*
X83999701Y-238379567D01*
X84110661Y-238458678D01*
X84221392Y-238536553D01*
X84322541Y-238606555D01*
X84404755Y-238662048D01*
X84458682Y-238696394D01*
X84474589Y-238704301D01*
X84503518Y-238689158D01*
X84569566Y-238646634D01*
X84664157Y-238582485D01*
X84778716Y-238502463D01*
X84834545Y-238462774D01*
X84955050Y-238375892D01*
X85058554Y-238299831D01*
X85136606Y-238240915D01*
X85180755Y-238205465D01*
X85187271Y-238198915D01*
X85171331Y-238174852D01*
X85117963Y-238126714D01*
X85036322Y-238062301D01*
X84968426Y-238012538D01*
X84851887Y-237929457D01*
X84736096Y-237846907D01*
X84639478Y-237778026D01*
X84606926Y-237754818D01*
X84477296Y-237662398D01*
X84113037Y-237919512D01*
X83988513Y-238007474D01*
X83881258Y-238083365D01*
X83799273Y-238141510D01*
X83750564Y-238176237D01*
X83740622Y-238183488D01*
X79868955Y-238183488D01*
X79872131Y-237587486D01*
X82887530Y-237587486D01*
X82919540Y-237612828D01*
X82988795Y-237663767D01*
X83086175Y-237733712D01*
X83202556Y-237816070D01*
X83247153Y-237847352D01*
X83377873Y-237938205D01*
X83471092Y-238000323D01*
X83535253Y-238037754D01*
X83578803Y-238054546D01*
X83610187Y-238054747D01*
X83637852Y-238042405D01*
X83644923Y-238037997D01*
X83692041Y-238006137D01*
X83774036Y-237948991D01*
X83879968Y-237874242D01*
X83998901Y-237789574D01*
X84017174Y-237776502D01*
X84323946Y-237556898D01*
X83976976Y-237314154D01*
X83853651Y-237228574D01*
X83745823Y-237155063D01*
X83662316Y-237099536D01*
X83611952Y-237067906D01*
X83602260Y-237062983D01*
X83567398Y-237074203D01*
X83499883Y-237112720D01*
X83408970Y-237171744D01*
X83303911Y-237244484D01*
X83193962Y-237324149D01*
X83088376Y-237403948D01*
X82996407Y-237477089D01*
X82927308Y-237536783D01*
X82890334Y-237576237D01*
X82887530Y-237587486D01*
X79872131Y-237587486D01*
X79875010Y-237047113D01*
X79875498Y-236955459D01*
X81975572Y-236955459D01*
X82005945Y-236978289D01*
X82073987Y-237027082D01*
X82170972Y-237095651D01*
X82288174Y-237177809D01*
X82348916Y-237220163D01*
X82495188Y-237318991D01*
X82609987Y-237390269D01*
X82689151Y-237431598D01*
X82728519Y-237440578D01*
X82729916Y-237439758D01*
X82763299Y-237415599D01*
X82833721Y-237365644D01*
X82931947Y-237296414D01*
X83048739Y-237214430D01*
X83092611Y-237183706D01*
X83210692Y-237099757D01*
X83310074Y-237026606D01*
X83382541Y-236970494D01*
X83419879Y-236937666D01*
X83423146Y-236932535D01*
X83400969Y-236908326D01*
X83343755Y-236862923D01*
X83263723Y-236805999D01*
X83260869Y-236804059D01*
X83156657Y-236732854D01*
X83031416Y-236646578D01*
X82910320Y-236562578D01*
X82897473Y-236553622D01*
X82695280Y-236412571D01*
X82323712Y-236673446D01*
X82200149Y-236762398D01*
X82096904Y-236840965D01*
X82021161Y-236903328D01*
X81980107Y-236943665D01*
X81975572Y-236955459D01*
X79875498Y-236955459D01*
X79878982Y-236301336D01*
X81089455Y-236301336D01*
X81108787Y-236323359D01*
X81165235Y-236370154D01*
X81249202Y-236434813D01*
X81351087Y-236510430D01*
X81461293Y-236590098D01*
X81570218Y-236666910D01*
X81668264Y-236733959D01*
X81745832Y-236784338D01*
X81793322Y-236811141D01*
X81801559Y-236813710D01*
X81834685Y-236798739D01*
X81903382Y-236757342D01*
X81997360Y-236695997D01*
X82097892Y-236627101D01*
X82215178Y-236544687D01*
X82324885Y-236467018D01*
X82413163Y-236403930D01*
X82458929Y-236370659D01*
X82551969Y-236301784D01*
X82196200Y-236050226D01*
X82071716Y-235963394D01*
X81962622Y-235889533D01*
X81877517Y-235834292D01*
X81824998Y-235803316D01*
X81813219Y-235798667D01*
X81781814Y-235814087D01*
X81714896Y-235855720D01*
X81622462Y-235916621D01*
X81514507Y-235989848D01*
X81401031Y-236068458D01*
X81292028Y-236145508D01*
X81197497Y-236214054D01*
X81127434Y-236267154D01*
X81091836Y-236297864D01*
X81089455Y-236301336D01*
X79878982Y-236301336D01*
X79882326Y-235673528D01*
X80192778Y-235673528D01*
X80214217Y-235692498D01*
X80272176Y-235737174D01*
X80357117Y-235800635D01*
X80459502Y-235875957D01*
X80569793Y-235956217D01*
X80678452Y-236034494D01*
X80775942Y-236103864D01*
X80852724Y-236157405D01*
X80899261Y-236188193D01*
X80908383Y-236192918D01*
X80933786Y-236177951D01*
X80997154Y-236136128D01*
X81090245Y-236073011D01*
X81204816Y-235994162D01*
X81269368Y-235949332D01*
X81392413Y-235862867D01*
X81498375Y-235786975D01*
X81578846Y-235727790D01*
X81625415Y-235691446D01*
X81633342Y-235683786D01*
X81615921Y-235661349D01*
X81559362Y-235612993D01*
X81471159Y-235544603D01*
X81358805Y-235462066D01*
X81278755Y-235405284D01*
X80911129Y-235147880D01*
X80551953Y-235404671D01*
X80429192Y-235493168D01*
X80324483Y-235570046D01*
X80245638Y-235629455D01*
X80200469Y-235665548D01*
X80192778Y-235673528D01*
X79882326Y-235673528D01*
X79882333Y-235672387D01*
X80397458Y-235310063D01*
X80912582Y-234947738D01*
X83211595Y-236565592D01*
G37*
X83211595Y-236565592D02*
X85510608Y-238183445D01*
X85511637Y-239568829D01*
X85512667Y-240954214D01*
X85152833Y-241210589D01*
X85013775Y-241309731D01*
X84876982Y-241407373D01*
X84755428Y-241494248D01*
X84662085Y-241561087D01*
X84637301Y-241578880D01*
X84481602Y-241690796D01*
X82308968Y-240155738D01*
X81993260Y-239932630D01*
X81688498Y-239717164D01*
X81398128Y-239511784D01*
X81125598Y-239318932D01*
X80874354Y-239141049D01*
X80647844Y-238980577D01*
X80449513Y-238839960D01*
X80282810Y-238721638D01*
X80151180Y-238628054D01*
X80058071Y-238561650D01*
X80006929Y-238524869D01*
X80002010Y-238521259D01*
X79867686Y-238421839D01*
X79868955Y-238183488D01*
X83740622Y-238183488D01*
X83758972Y-238201180D01*
X83814504Y-238244181D01*
X83897864Y-238305856D01*
X83999701Y-238379567D01*
X84110661Y-238458678D01*
X84221392Y-238536553D01*
X84322541Y-238606555D01*
X84404755Y-238662048D01*
X84458682Y-238696394D01*
X84474589Y-238704301D01*
X84503518Y-238689158D01*
X84569566Y-238646634D01*
X84664157Y-238582485D01*
X84778716Y-238502463D01*
X84834545Y-238462774D01*
X84955050Y-238375892D01*
X85058554Y-238299831D01*
X85136606Y-238240915D01*
X85180755Y-238205465D01*
X85187271Y-238198915D01*
X85171331Y-238174852D01*
X85117963Y-238126714D01*
X85036322Y-238062301D01*
X84968426Y-238012538D01*
X84851887Y-237929457D01*
X84736096Y-237846907D01*
X84639478Y-237778026D01*
X84606926Y-237754818D01*
X84477296Y-237662398D01*
X84113037Y-237919512D01*
X83988513Y-238007474D01*
X83881258Y-238083365D01*
X83799273Y-238141510D01*
X83750564Y-238176237D01*
X83740622Y-238183488D01*
X79868955Y-238183488D01*
X79872131Y-237587486D01*
X82887530Y-237587486D01*
X82919540Y-237612828D01*
X82988795Y-237663767D01*
X83086175Y-237733712D01*
X83202556Y-237816070D01*
X83247153Y-237847352D01*
X83377873Y-237938205D01*
X83471092Y-238000323D01*
X83535253Y-238037754D01*
X83578803Y-238054546D01*
X83610187Y-238054747D01*
X83637852Y-238042405D01*
X83644923Y-238037997D01*
X83692041Y-238006137D01*
X83774036Y-237948991D01*
X83879968Y-237874242D01*
X83998901Y-237789574D01*
X84017174Y-237776502D01*
X84323946Y-237556898D01*
X83976976Y-237314154D01*
X83853651Y-237228574D01*
X83745823Y-237155063D01*
X83662316Y-237099536D01*
X83611952Y-237067906D01*
X83602260Y-237062983D01*
X83567398Y-237074203D01*
X83499883Y-237112720D01*
X83408970Y-237171744D01*
X83303911Y-237244484D01*
X83193962Y-237324149D01*
X83088376Y-237403948D01*
X82996407Y-237477089D01*
X82927308Y-237536783D01*
X82890334Y-237576237D01*
X82887530Y-237587486D01*
X79872131Y-237587486D01*
X79875010Y-237047113D01*
X79875498Y-236955459D01*
X81975572Y-236955459D01*
X82005945Y-236978289D01*
X82073987Y-237027082D01*
X82170972Y-237095651D01*
X82288174Y-237177809D01*
X82348916Y-237220163D01*
X82495188Y-237318991D01*
X82609987Y-237390269D01*
X82689151Y-237431598D01*
X82728519Y-237440578D01*
X82729916Y-237439758D01*
X82763299Y-237415599D01*
X82833721Y-237365644D01*
X82931947Y-237296414D01*
X83048739Y-237214430D01*
X83092611Y-237183706D01*
X83210692Y-237099757D01*
X83310074Y-237026606D01*
X83382541Y-236970494D01*
X83419879Y-236937666D01*
X83423146Y-236932535D01*
X83400969Y-236908326D01*
X83343755Y-236862923D01*
X83263723Y-236805999D01*
X83260869Y-236804059D01*
X83156657Y-236732854D01*
X83031416Y-236646578D01*
X82910320Y-236562578D01*
X82897473Y-236553622D01*
X82695280Y-236412571D01*
X82323712Y-236673446D01*
X82200149Y-236762398D01*
X82096904Y-236840965D01*
X82021161Y-236903328D01*
X81980107Y-236943665D01*
X81975572Y-236955459D01*
X79875498Y-236955459D01*
X79878982Y-236301336D01*
X81089455Y-236301336D01*
X81108787Y-236323359D01*
X81165235Y-236370154D01*
X81249202Y-236434813D01*
X81351087Y-236510430D01*
X81461293Y-236590098D01*
X81570218Y-236666910D01*
X81668264Y-236733959D01*
X81745832Y-236784338D01*
X81793322Y-236811141D01*
X81801559Y-236813710D01*
X81834685Y-236798739D01*
X81903382Y-236757342D01*
X81997360Y-236695997D01*
X82097892Y-236627101D01*
X82215178Y-236544687D01*
X82324885Y-236467018D01*
X82413163Y-236403930D01*
X82458929Y-236370659D01*
X82551969Y-236301784D01*
X82196200Y-236050226D01*
X82071716Y-235963394D01*
X81962622Y-235889533D01*
X81877517Y-235834292D01*
X81824998Y-235803316D01*
X81813219Y-235798667D01*
X81781814Y-235814087D01*
X81714896Y-235855720D01*
X81622462Y-235916621D01*
X81514507Y-235989848D01*
X81401031Y-236068458D01*
X81292028Y-236145508D01*
X81197497Y-236214054D01*
X81127434Y-236267154D01*
X81091836Y-236297864D01*
X81089455Y-236301336D01*
X79878982Y-236301336D01*
X79882326Y-235673528D01*
X80192778Y-235673528D01*
X80214217Y-235692498D01*
X80272176Y-235737174D01*
X80357117Y-235800635D01*
X80459502Y-235875957D01*
X80569793Y-235956217D01*
X80678452Y-236034494D01*
X80775942Y-236103864D01*
X80852724Y-236157405D01*
X80899261Y-236188193D01*
X80908383Y-236192918D01*
X80933786Y-236177951D01*
X80997154Y-236136128D01*
X81090245Y-236073011D01*
X81204816Y-235994162D01*
X81269368Y-235949332D01*
X81392413Y-235862867D01*
X81498375Y-235786975D01*
X81578846Y-235727790D01*
X81625415Y-235691446D01*
X81633342Y-235683786D01*
X81615921Y-235661349D01*
X81559362Y-235612993D01*
X81471159Y-235544603D01*
X81358805Y-235462066D01*
X81278755Y-235405284D01*
X80911129Y-235147880D01*
X80551953Y-235404671D01*
X80429192Y-235493168D01*
X80324483Y-235570046D01*
X80245638Y-235629455D01*
X80200469Y-235665548D01*
X80192778Y-235673528D01*
X79882326Y-235673528D01*
X79882333Y-235672387D01*
X80397458Y-235310063D01*
X80912582Y-234947738D01*
X83211595Y-236565592D01*
G36*
X76366859Y-235000487D02*
G01*
X76403598Y-235025766D01*
X76481983Y-235080651D01*
X76597650Y-235162054D01*
X76746229Y-235266890D01*
X76923356Y-235392073D01*
X77124662Y-235534518D01*
X77345782Y-235691138D01*
X77582347Y-235858847D01*
X77775281Y-235995729D01*
X79106747Y-236940679D01*
X79092111Y-239706093D01*
X77817952Y-240609880D01*
X77575803Y-240781665D01*
X77344246Y-240945978D01*
X77127978Y-241099486D01*
X76931694Y-241238854D01*
X76760088Y-241360746D01*
X76617856Y-241461829D01*
X76509693Y-241538768D01*
X76440295Y-241588227D01*
X76420342Y-241602514D01*
X76296892Y-241691361D01*
X74893186Y-240699823D01*
X73489481Y-239708285D01*
X73496796Y-238314022D01*
X73497384Y-238201742D01*
X75547394Y-238201742D01*
X75922654Y-238464331D01*
X76297914Y-238726921D01*
X76453235Y-238614856D01*
X76553696Y-238542865D01*
X76676257Y-238455736D01*
X76796741Y-238370648D01*
X76813167Y-238359104D01*
X76904164Y-238293468D01*
X76974186Y-238239659D01*
X77012761Y-238205877D01*
X77017072Y-238199431D01*
X76994240Y-238173934D01*
X76933416Y-238125414D01*
X76844541Y-238060532D01*
X76737561Y-237985947D01*
X76622419Y-237908320D01*
X76509060Y-237834310D01*
X76407426Y-237770577D01*
X76327462Y-237723782D01*
X76279113Y-237700584D01*
X76270611Y-237699485D01*
X76235377Y-237720248D01*
X76163440Y-237767783D01*
X76063917Y-237835899D01*
X75945925Y-237918402D01*
X75890370Y-237957763D01*
X75547394Y-238201742D01*
X73497384Y-238201742D01*
X73500687Y-237572237D01*
X74676161Y-237572237D01*
X74698147Y-237592696D01*
X74757145Y-237638069D01*
X74843486Y-237701542D01*
X74947500Y-237776301D01*
X75059518Y-237855530D01*
X75169869Y-237932414D01*
X75268884Y-238000140D01*
X75346893Y-238051893D01*
X75394227Y-238080858D01*
X75403287Y-238084667D01*
X75429399Y-238069151D01*
X75493298Y-238026308D01*
X75586897Y-237961698D01*
X75702108Y-237880881D01*
X75778353Y-237826847D01*
X76116892Y-237586039D01*
X76482065Y-237586039D01*
X76487596Y-237594392D01*
X76537283Y-237636362D01*
X76617846Y-237696685D01*
X76719258Y-237768658D01*
X76831493Y-237845579D01*
X76944526Y-237920745D01*
X77048329Y-237987453D01*
X77132878Y-238039002D01*
X77188146Y-238068688D01*
X77203635Y-238073079D01*
X77236370Y-238053400D01*
X77306013Y-238006772D01*
X77403704Y-237939280D01*
X77520579Y-237857006D01*
X77578686Y-237815626D01*
X77697953Y-237729600D01*
X77798211Y-237655779D01*
X77871728Y-237599977D01*
X77910772Y-237568008D01*
X77914940Y-237562769D01*
X77890385Y-237544893D01*
X77827929Y-237499922D01*
X77735577Y-237433607D01*
X77621334Y-237351698D01*
X77547548Y-237298847D01*
X77188319Y-237041628D01*
X76819811Y-237300069D01*
X76678810Y-237400270D01*
X76579807Y-237474297D01*
X76517531Y-237526820D01*
X76486707Y-237562510D01*
X76482065Y-237586039D01*
X76116892Y-237586039D01*
X76140810Y-237569026D01*
X76036016Y-237493805D01*
X75969596Y-237446675D01*
X75871240Y-237377553D01*
X75755415Y-237296582D01*
X75661141Y-237230955D01*
X75391059Y-237043326D01*
X75033196Y-237298510D01*
X74910584Y-237387107D01*
X74806181Y-237464769D01*
X74727823Y-237525489D01*
X74683347Y-237563257D01*
X74676161Y-237572237D01*
X73500687Y-237572237D01*
X73503988Y-236943104D01*
X73779194Y-236943104D01*
X73803494Y-236960679D01*
X73865945Y-237005101D01*
X73958559Y-237070707D01*
X74073344Y-237151833D01*
X74149545Y-237205611D01*
X74512757Y-237461809D01*
X74699878Y-237329857D01*
X74815929Y-237247808D01*
X74939394Y-237160183D01*
X75042222Y-237086896D01*
X75124486Y-237027498D01*
X75188984Y-236979891D01*
X75220915Y-236955062D01*
X75206974Y-236935605D01*
X77329728Y-236935605D01*
X77702105Y-237198512D01*
X77840862Y-237296177D01*
X77941440Y-237365101D01*
X78011764Y-237409104D01*
X78059762Y-237432005D01*
X78093359Y-237437623D01*
X78120482Y-237429778D01*
X78147662Y-237413209D01*
X78199311Y-237378499D01*
X78285291Y-237319993D01*
X78393484Y-237245961D01*
X78507751Y-237167445D01*
X78617474Y-237090520D01*
X78707917Y-237024499D01*
X78770114Y-236976116D01*
X78795095Y-236952107D01*
X78795218Y-236951528D01*
X78773935Y-236931149D01*
X78716087Y-236885097D01*
X78631154Y-236820348D01*
X78528614Y-236743876D01*
X78417948Y-236662659D01*
X78308634Y-236583670D01*
X78210151Y-236513885D01*
X78131979Y-236460281D01*
X78096715Y-236437521D01*
X78058525Y-236444818D01*
X77979503Y-236486273D01*
X77862445Y-236560230D01*
X77710145Y-236665032D01*
X77695302Y-236675567D01*
X77329728Y-236935605D01*
X75206974Y-236935605D01*
X75205911Y-236934122D01*
X75153869Y-236887491D01*
X75073835Y-236822068D01*
X74974856Y-236744752D01*
X74865979Y-236662440D01*
X74756253Y-236582032D01*
X74654722Y-236510425D01*
X74570436Y-236454517D01*
X74540715Y-236436419D01*
X74503439Y-236444314D01*
X74426382Y-236484876D01*
X74313858Y-236555535D01*
X74170178Y-236653720D01*
X74138465Y-236676162D01*
X74014987Y-236764668D01*
X73910165Y-236841092D01*
X73831551Y-236899823D01*
X73786696Y-236935251D01*
X73779194Y-236943104D01*
X73503988Y-236943104D01*
X73504111Y-236919760D01*
X74363193Y-236312386D01*
X74676409Y-236312386D01*
X74697852Y-236334500D01*
X74756478Y-236381027D01*
X74842492Y-236445091D01*
X74946098Y-236519813D01*
X75057503Y-236598317D01*
X75166912Y-236673725D01*
X75264530Y-236739161D01*
X75340562Y-236787746D01*
X75385213Y-236812605D01*
X75391433Y-236814429D01*
X75422021Y-236799074D01*
X75489915Y-236756612D01*
X75586464Y-236692706D01*
X75703020Y-236613022D01*
X75765378Y-236569537D01*
X75886807Y-236483114D01*
X75989888Y-236407451D01*
X76066597Y-236348620D01*
X76108913Y-236312694D01*
X76113529Y-236306667D01*
X76454072Y-236306667D01*
X76476037Y-236328466D01*
X76535214Y-236374719D01*
X76621832Y-236438600D01*
X76726118Y-236513283D01*
X76838302Y-236591939D01*
X76948611Y-236667743D01*
X77047275Y-236733868D01*
X77124520Y-236783487D01*
X77170577Y-236809774D01*
X77177707Y-236812216D01*
X77211365Y-236797692D01*
X77282056Y-236756060D01*
X77380827Y-236692949D01*
X77498726Y-236613985D01*
X77557989Y-236573143D01*
X77679857Y-236488231D01*
X77784272Y-236415148D01*
X77862929Y-236359732D01*
X77907525Y-236327823D01*
X77914407Y-236322557D01*
X77896912Y-236303608D01*
X77841604Y-236260139D01*
X77757850Y-236198612D01*
X77655020Y-236125487D01*
X77542481Y-236047226D01*
X77429601Y-235970290D01*
X77325750Y-235901141D01*
X77240294Y-235846240D01*
X77182604Y-235812047D01*
X77162555Y-235804008D01*
X77127597Y-235824986D01*
X77059115Y-235870677D01*
X76966803Y-235934201D01*
X76860359Y-236008679D01*
X76749477Y-236087232D01*
X76643853Y-236162981D01*
X76553183Y-236229048D01*
X76487163Y-236278554D01*
X76455488Y-236304618D01*
X76454072Y-236306667D01*
X76113529Y-236306667D01*
X76114667Y-236305182D01*
X76092709Y-236283247D01*
X76032160Y-236235423D01*
X75941006Y-236167707D01*
X75827231Y-236086093D01*
X75759670Y-236038680D01*
X75404673Y-235791405D01*
X75202281Y-235932594D01*
X75083314Y-236015196D01*
X74957250Y-236102109D01*
X74849233Y-236176006D01*
X74838687Y-236183170D01*
X74758100Y-236240419D01*
X74699946Y-236286616D01*
X74676452Y-236312026D01*
X74676409Y-236312386D01*
X74363193Y-236312386D01*
X74897007Y-235934978D01*
X75240046Y-235692448D01*
X75585371Y-235692448D01*
X75612565Y-235721830D01*
X75676683Y-235773369D01*
X75767545Y-235840205D01*
X75874972Y-235915475D01*
X75988785Y-235992320D01*
X76098804Y-236063878D01*
X76194851Y-236123288D01*
X76266745Y-236163689D01*
X76304309Y-236178220D01*
X76305753Y-236177996D01*
X76340804Y-236158635D01*
X76412801Y-236112965D01*
X76512462Y-236047062D01*
X76630506Y-235967005D01*
X76679341Y-235933384D01*
X76798791Y-235849874D01*
X76899658Y-235777593D01*
X76973747Y-235722551D01*
X77012862Y-235690762D01*
X77016889Y-235685778D01*
X76994316Y-235659745D01*
X76933564Y-235610919D01*
X76844614Y-235545943D01*
X76737447Y-235471461D01*
X76622044Y-235394116D01*
X76508386Y-235320553D01*
X76406455Y-235257415D01*
X76326231Y-235211346D01*
X76277696Y-235188990D01*
X76269349Y-235188191D01*
X76219708Y-235214792D01*
X76140989Y-235265377D01*
X76042844Y-235332835D01*
X75934923Y-235410049D01*
X75826874Y-235489905D01*
X75728349Y-235565290D01*
X75648997Y-235629088D01*
X75598468Y-235674185D01*
X75585371Y-235692448D01*
X75240046Y-235692448D01*
X76289903Y-234950195D01*
X76366859Y-235000487D01*
G37*
X76366859Y-235000487D02*
X76403598Y-235025766D01*
X76481983Y-235080651D01*
X76597650Y-235162054D01*
X76746229Y-235266890D01*
X76923356Y-235392073D01*
X77124662Y-235534518D01*
X77345782Y-235691138D01*
X77582347Y-235858847D01*
X77775281Y-235995729D01*
X79106747Y-236940679D01*
X79092111Y-239706093D01*
X77817952Y-240609880D01*
X77575803Y-240781665D01*
X77344246Y-240945978D01*
X77127978Y-241099486D01*
X76931694Y-241238854D01*
X76760088Y-241360746D01*
X76617856Y-241461829D01*
X76509693Y-241538768D01*
X76440295Y-241588227D01*
X76420342Y-241602514D01*
X76296892Y-241691361D01*
X74893186Y-240699823D01*
X73489481Y-239708285D01*
X73496796Y-238314022D01*
X73497384Y-238201742D01*
X75547394Y-238201742D01*
X75922654Y-238464331D01*
X76297914Y-238726921D01*
X76453235Y-238614856D01*
X76553696Y-238542865D01*
X76676257Y-238455736D01*
X76796741Y-238370648D01*
X76813167Y-238359104D01*
X76904164Y-238293468D01*
X76974186Y-238239659D01*
X77012761Y-238205877D01*
X77017072Y-238199431D01*
X76994240Y-238173934D01*
X76933416Y-238125414D01*
X76844541Y-238060532D01*
X76737561Y-237985947D01*
X76622419Y-237908320D01*
X76509060Y-237834310D01*
X76407426Y-237770577D01*
X76327462Y-237723782D01*
X76279113Y-237700584D01*
X76270611Y-237699485D01*
X76235377Y-237720248D01*
X76163440Y-237767783D01*
X76063917Y-237835899D01*
X75945925Y-237918402D01*
X75890370Y-237957763D01*
X75547394Y-238201742D01*
X73497384Y-238201742D01*
X73500687Y-237572237D01*
X74676161Y-237572237D01*
X74698147Y-237592696D01*
X74757145Y-237638069D01*
X74843486Y-237701542D01*
X74947500Y-237776301D01*
X75059518Y-237855530D01*
X75169869Y-237932414D01*
X75268884Y-238000140D01*
X75346893Y-238051893D01*
X75394227Y-238080858D01*
X75403287Y-238084667D01*
X75429399Y-238069151D01*
X75493298Y-238026308D01*
X75586897Y-237961698D01*
X75702108Y-237880881D01*
X75778353Y-237826847D01*
X76116892Y-237586039D01*
X76482065Y-237586039D01*
X76487596Y-237594392D01*
X76537283Y-237636362D01*
X76617846Y-237696685D01*
X76719258Y-237768658D01*
X76831493Y-237845579D01*
X76944526Y-237920745D01*
X77048329Y-237987453D01*
X77132878Y-238039002D01*
X77188146Y-238068688D01*
X77203635Y-238073079D01*
X77236370Y-238053400D01*
X77306013Y-238006772D01*
X77403704Y-237939280D01*
X77520579Y-237857006D01*
X77578686Y-237815626D01*
X77697953Y-237729600D01*
X77798211Y-237655779D01*
X77871728Y-237599977D01*
X77910772Y-237568008D01*
X77914940Y-237562769D01*
X77890385Y-237544893D01*
X77827929Y-237499922D01*
X77735577Y-237433607D01*
X77621334Y-237351698D01*
X77547548Y-237298847D01*
X77188319Y-237041628D01*
X76819811Y-237300069D01*
X76678810Y-237400270D01*
X76579807Y-237474297D01*
X76517531Y-237526820D01*
X76486707Y-237562510D01*
X76482065Y-237586039D01*
X76116892Y-237586039D01*
X76140810Y-237569026D01*
X76036016Y-237493805D01*
X75969596Y-237446675D01*
X75871240Y-237377553D01*
X75755415Y-237296582D01*
X75661141Y-237230955D01*
X75391059Y-237043326D01*
X75033196Y-237298510D01*
X74910584Y-237387107D01*
X74806181Y-237464769D01*
X74727823Y-237525489D01*
X74683347Y-237563257D01*
X74676161Y-237572237D01*
X73500687Y-237572237D01*
X73503988Y-236943104D01*
X73779194Y-236943104D01*
X73803494Y-236960679D01*
X73865945Y-237005101D01*
X73958559Y-237070707D01*
X74073344Y-237151833D01*
X74149545Y-237205611D01*
X74512757Y-237461809D01*
X74699878Y-237329857D01*
X74815929Y-237247808D01*
X74939394Y-237160183D01*
X75042222Y-237086896D01*
X75124486Y-237027498D01*
X75188984Y-236979891D01*
X75220915Y-236955062D01*
X75206974Y-236935605D01*
X77329728Y-236935605D01*
X77702105Y-237198512D01*
X77840862Y-237296177D01*
X77941440Y-237365101D01*
X78011764Y-237409104D01*
X78059762Y-237432005D01*
X78093359Y-237437623D01*
X78120482Y-237429778D01*
X78147662Y-237413209D01*
X78199311Y-237378499D01*
X78285291Y-237319993D01*
X78393484Y-237245961D01*
X78507751Y-237167445D01*
X78617474Y-237090520D01*
X78707917Y-237024499D01*
X78770114Y-236976116D01*
X78795095Y-236952107D01*
X78795218Y-236951528D01*
X78773935Y-236931149D01*
X78716087Y-236885097D01*
X78631154Y-236820348D01*
X78528614Y-236743876D01*
X78417948Y-236662659D01*
X78308634Y-236583670D01*
X78210151Y-236513885D01*
X78131979Y-236460281D01*
X78096715Y-236437521D01*
X78058525Y-236444818D01*
X77979503Y-236486273D01*
X77862445Y-236560230D01*
X77710145Y-236665032D01*
X77695302Y-236675567D01*
X77329728Y-236935605D01*
X75206974Y-236935605D01*
X75205911Y-236934122D01*
X75153869Y-236887491D01*
X75073835Y-236822068D01*
X74974856Y-236744752D01*
X74865979Y-236662440D01*
X74756253Y-236582032D01*
X74654722Y-236510425D01*
X74570436Y-236454517D01*
X74540715Y-236436419D01*
X74503439Y-236444314D01*
X74426382Y-236484876D01*
X74313858Y-236555535D01*
X74170178Y-236653720D01*
X74138465Y-236676162D01*
X74014987Y-236764668D01*
X73910165Y-236841092D01*
X73831551Y-236899823D01*
X73786696Y-236935251D01*
X73779194Y-236943104D01*
X73503988Y-236943104D01*
X73504111Y-236919760D01*
X74363193Y-236312386D01*
X74676409Y-236312386D01*
X74697852Y-236334500D01*
X74756478Y-236381027D01*
X74842492Y-236445091D01*
X74946098Y-236519813D01*
X75057503Y-236598317D01*
X75166912Y-236673725D01*
X75264530Y-236739161D01*
X75340562Y-236787746D01*
X75385213Y-236812605D01*
X75391433Y-236814429D01*
X75422021Y-236799074D01*
X75489915Y-236756612D01*
X75586464Y-236692706D01*
X75703020Y-236613022D01*
X75765378Y-236569537D01*
X75886807Y-236483114D01*
X75989888Y-236407451D01*
X76066597Y-236348620D01*
X76108913Y-236312694D01*
X76113529Y-236306667D01*
X76454072Y-236306667D01*
X76476037Y-236328466D01*
X76535214Y-236374719D01*
X76621832Y-236438600D01*
X76726118Y-236513283D01*
X76838302Y-236591939D01*
X76948611Y-236667743D01*
X77047275Y-236733868D01*
X77124520Y-236783487D01*
X77170577Y-236809774D01*
X77177707Y-236812216D01*
X77211365Y-236797692D01*
X77282056Y-236756060D01*
X77380827Y-236692949D01*
X77498726Y-236613985D01*
X77557989Y-236573143D01*
X77679857Y-236488231D01*
X77784272Y-236415148D01*
X77862929Y-236359732D01*
X77907525Y-236327823D01*
X77914407Y-236322557D01*
X77896912Y-236303608D01*
X77841604Y-236260139D01*
X77757850Y-236198612D01*
X77655020Y-236125487D01*
X77542481Y-236047226D01*
X77429601Y-235970290D01*
X77325750Y-235901141D01*
X77240294Y-235846240D01*
X77182604Y-235812047D01*
X77162555Y-235804008D01*
X77127597Y-235824986D01*
X77059115Y-235870677D01*
X76966803Y-235934201D01*
X76860359Y-236008679D01*
X76749477Y-236087232D01*
X76643853Y-236162981D01*
X76553183Y-236229048D01*
X76487163Y-236278554D01*
X76455488Y-236304618D01*
X76454072Y-236306667D01*
X76113529Y-236306667D01*
X76114667Y-236305182D01*
X76092709Y-236283247D01*
X76032160Y-236235423D01*
X75941006Y-236167707D01*
X75827231Y-236086093D01*
X75759670Y-236038680D01*
X75404673Y-235791405D01*
X75202281Y-235932594D01*
X75083314Y-236015196D01*
X74957250Y-236102109D01*
X74849233Y-236176006D01*
X74838687Y-236183170D01*
X74758100Y-236240419D01*
X74699946Y-236286616D01*
X74676452Y-236312026D01*
X74676409Y-236312386D01*
X74363193Y-236312386D01*
X74897007Y-235934978D01*
X75240046Y-235692448D01*
X75585371Y-235692448D01*
X75612565Y-235721830D01*
X75676683Y-235773369D01*
X75767545Y-235840205D01*
X75874972Y-235915475D01*
X75988785Y-235992320D01*
X76098804Y-236063878D01*
X76194851Y-236123288D01*
X76266745Y-236163689D01*
X76304309Y-236178220D01*
X76305753Y-236177996D01*
X76340804Y-236158635D01*
X76412801Y-236112965D01*
X76512462Y-236047062D01*
X76630506Y-235967005D01*
X76679341Y-235933384D01*
X76798791Y-235849874D01*
X76899658Y-235777593D01*
X76973747Y-235722551D01*
X77012862Y-235690762D01*
X77016889Y-235685778D01*
X76994316Y-235659745D01*
X76933564Y-235610919D01*
X76844614Y-235545943D01*
X76737447Y-235471461D01*
X76622044Y-235394116D01*
X76508386Y-235320553D01*
X76406455Y-235257415D01*
X76326231Y-235211346D01*
X76277696Y-235188990D01*
X76269349Y-235188191D01*
X76219708Y-235214792D01*
X76140989Y-235265377D01*
X76042844Y-235332835D01*
X75934923Y-235410049D01*
X75826874Y-235489905D01*
X75728349Y-235565290D01*
X75648997Y-235629088D01*
X75598468Y-235674185D01*
X75585371Y-235692448D01*
X75240046Y-235692448D01*
X76289903Y-234950195D01*
X76366859Y-235000487D01*
G36*
X89249576Y-235048542D02*
G01*
X89293306Y-235079237D01*
X89379589Y-235140122D01*
X89504943Y-235228730D01*
X89665883Y-235342593D01*
X89858925Y-235479245D01*
X90080585Y-235636217D01*
X90327380Y-235811044D01*
X90595826Y-236001258D01*
X90882438Y-236204391D01*
X91183733Y-236417976D01*
X91496227Y-236639546D01*
X91538111Y-236669247D01*
X93683000Y-238190255D01*
X93690318Y-239571294D01*
X93697637Y-240952334D01*
X92321541Y-241926586D01*
X92073432Y-242102179D01*
X91838684Y-242268194D01*
X91621404Y-242421735D01*
X91425698Y-242559905D01*
X91255675Y-242679807D01*
X91115442Y-242778545D01*
X91009106Y-242853221D01*
X90940775Y-242900940D01*
X90914746Y-242918699D01*
X90883703Y-242908379D01*
X90813833Y-242869554D01*
X90712159Y-242806636D01*
X90585707Y-242724035D01*
X90441501Y-242626164D01*
X90372083Y-242577891D01*
X89860119Y-242219223D01*
X89858889Y-241162919D01*
X89488099Y-241422960D01*
X89362296Y-241510797D01*
X89253585Y-241585958D01*
X89169930Y-241642996D01*
X89119296Y-241676465D01*
X89107877Y-241683000D01*
X89083780Y-241667171D01*
X89017596Y-241621553D01*
X88913321Y-241548949D01*
X88774952Y-241452163D01*
X88606484Y-241333998D01*
X88411916Y-241197256D01*
X88195242Y-241044742D01*
X87960459Y-240879259D01*
X87711565Y-240703610D01*
X87700667Y-240695914D01*
X86302889Y-239708829D01*
X86302889Y-239447892D01*
X90173832Y-239447892D01*
X90193399Y-239469369D01*
X90249457Y-239516505D01*
X90332525Y-239582208D01*
X90433120Y-239659387D01*
X90541762Y-239740951D01*
X90648968Y-239819809D01*
X90745258Y-239888870D01*
X90821149Y-239941044D01*
X90867161Y-239969238D01*
X90874889Y-239972196D01*
X90901646Y-239957343D01*
X90966060Y-239915335D01*
X91059816Y-239851771D01*
X91174601Y-239772249D01*
X91239121Y-239726955D01*
X91360794Y-239639488D01*
X91464159Y-239561978D01*
X91541180Y-239500707D01*
X91583819Y-239461957D01*
X91589737Y-239452909D01*
X91568539Y-239429701D01*
X91511085Y-239380925D01*
X91427027Y-239313854D01*
X91326015Y-239235762D01*
X91217699Y-239153925D01*
X91111730Y-239075615D01*
X91017758Y-239008108D01*
X90945435Y-238958676D01*
X90904410Y-238934595D01*
X90900538Y-238933421D01*
X90871499Y-238948044D01*
X90806847Y-238989292D01*
X90716359Y-239050242D01*
X90609816Y-239123972D01*
X90496995Y-239203559D01*
X90387675Y-239282078D01*
X90291636Y-239352609D01*
X90218656Y-239408227D01*
X90178514Y-239442010D01*
X90173832Y-239447892D01*
X86302889Y-239447892D01*
X86302889Y-238843208D01*
X91059465Y-238843208D01*
X91098962Y-238875611D01*
X91172134Y-238929432D01*
X91268789Y-238997755D01*
X91378737Y-239073666D01*
X91491785Y-239150248D01*
X91597742Y-239220587D01*
X91686418Y-239277766D01*
X91747620Y-239314871D01*
X91770166Y-239325467D01*
X91804259Y-239310325D01*
X91875339Y-239267949D01*
X91974517Y-239203989D01*
X92092903Y-239124096D01*
X92157148Y-239079500D01*
X92279110Y-238993179D01*
X92382782Y-238918133D01*
X92460189Y-238860267D01*
X92503358Y-238825487D01*
X92509630Y-238818445D01*
X92487331Y-238794160D01*
X92427044Y-238746658D01*
X92338684Y-238682577D01*
X92232166Y-238608555D01*
X92117405Y-238531229D01*
X92004317Y-238457238D01*
X91902816Y-238393218D01*
X91822817Y-238345807D01*
X91774235Y-238321643D01*
X91765259Y-238320125D01*
X91721526Y-238344421D01*
X91647446Y-238393176D01*
X91552308Y-238459506D01*
X91445404Y-238536524D01*
X91336025Y-238617345D01*
X91233461Y-238695083D01*
X91147003Y-238762853D01*
X91085941Y-238813769D01*
X91059566Y-238840946D01*
X91059465Y-238843208D01*
X86302889Y-238843208D01*
X86302889Y-238202146D01*
X88360860Y-238202146D01*
X88735831Y-238464533D01*
X89110803Y-238726921D01*
X89266124Y-238614856D01*
X89366585Y-238542865D01*
X89489146Y-238455736D01*
X89609630Y-238370648D01*
X89626056Y-238359104D01*
X89717050Y-238293469D01*
X89787064Y-238239660D01*
X89825627Y-238205878D01*
X89829933Y-238199431D01*
X89829237Y-238198503D01*
X91961445Y-238198503D01*
X91983065Y-238221434D01*
X92041394Y-238269243D01*
X92126636Y-238334822D01*
X92228995Y-238411061D01*
X92338675Y-238490853D01*
X92445879Y-238567086D01*
X92540811Y-238632654D01*
X92613676Y-238680445D01*
X92654676Y-238703352D01*
X92658497Y-238704350D01*
X92687173Y-238689347D01*
X92753596Y-238647127D01*
X92849502Y-238583167D01*
X92966626Y-238502940D01*
X93045911Y-238447686D01*
X93413606Y-238189816D01*
X93043336Y-237926124D01*
X92673067Y-237662432D01*
X92543033Y-237756898D01*
X92460092Y-237816829D01*
X92350173Y-237895820D01*
X92232294Y-237980214D01*
X92187222Y-238012390D01*
X92091174Y-238083291D01*
X92015442Y-238143757D01*
X91970013Y-238185558D01*
X91961445Y-238198503D01*
X89829237Y-238198503D01*
X89820850Y-238187336D01*
X89791189Y-238161732D01*
X89736439Y-238119249D01*
X89652092Y-238056515D01*
X89533639Y-237970161D01*
X89376571Y-237856814D01*
X89249978Y-237765880D01*
X89106733Y-237663111D01*
X88826644Y-237863288D01*
X88707731Y-237948522D01*
X88596562Y-238028643D01*
X88506307Y-238094136D01*
X88453708Y-238132806D01*
X88360860Y-238202146D01*
X86302889Y-238202146D01*
X86302889Y-237571717D01*
X87489540Y-237571717D01*
X87511611Y-237593393D01*
X87570403Y-237640142D01*
X87656192Y-237704959D01*
X87759256Y-237780839D01*
X87869871Y-237860777D01*
X87978316Y-237937766D01*
X88074868Y-238004802D01*
X88149803Y-238054879D01*
X88193400Y-238080992D01*
X88199386Y-238083169D01*
X88228060Y-238068267D01*
X88294478Y-238026135D01*
X88390377Y-237962243D01*
X88507493Y-237882059D01*
X88586800Y-237826797D01*
X88930095Y-237586039D01*
X89294954Y-237586039D01*
X89300485Y-237594392D01*
X89350172Y-237636362D01*
X89430735Y-237696685D01*
X89532147Y-237768658D01*
X89644382Y-237845579D01*
X89757415Y-237920745D01*
X89861218Y-237987453D01*
X89945767Y-238039002D01*
X90001034Y-238068688D01*
X90016524Y-238073079D01*
X90049259Y-238053400D01*
X90118902Y-238006772D01*
X90216593Y-237939280D01*
X90333468Y-237857006D01*
X90391575Y-237815626D01*
X90510842Y-237729600D01*
X90611100Y-237655779D01*
X90684617Y-237599977D01*
X90723660Y-237568008D01*
X90727829Y-237562769D01*
X90723901Y-237559909D01*
X91069327Y-237559909D01*
X91086631Y-237585398D01*
X91142064Y-237634274D01*
X91226000Y-237699834D01*
X91328814Y-237775376D01*
X91440878Y-237854197D01*
X91552567Y-237929595D01*
X91654255Y-237994866D01*
X91736315Y-238043310D01*
X91789122Y-238068222D01*
X91801560Y-238069754D01*
X91836920Y-238049198D01*
X91908772Y-238001678D01*
X92007962Y-237933434D01*
X92125338Y-237850709D01*
X92177808Y-237813182D01*
X92294776Y-237726805D01*
X92391045Y-237651158D01*
X92459227Y-237592417D01*
X92491935Y-237556760D01*
X92492915Y-237549699D01*
X92461425Y-237525949D01*
X92394264Y-237477293D01*
X92301932Y-237411288D01*
X92215445Y-237349973D01*
X92101620Y-237269256D01*
X91995837Y-237193700D01*
X91912197Y-237133404D01*
X91874214Y-237105566D01*
X91786983Y-237040597D01*
X91433652Y-237287465D01*
X91310334Y-237374744D01*
X91204290Y-237451917D01*
X91123846Y-237512758D01*
X91077323Y-237551045D01*
X91069327Y-237559909D01*
X90723901Y-237559909D01*
X90703274Y-237544893D01*
X90640818Y-237499922D01*
X90548466Y-237433607D01*
X90434223Y-237351698D01*
X90360437Y-237298847D01*
X90001208Y-237041628D01*
X89632700Y-237300069D01*
X89491699Y-237400270D01*
X89392696Y-237474297D01*
X89330419Y-237526820D01*
X89299596Y-237562510D01*
X89294954Y-237586039D01*
X88930095Y-237586039D01*
X88954495Y-237568927D01*
X88212829Y-237040741D01*
X88125692Y-237105990D01*
X88067365Y-237148366D01*
X87975839Y-237213376D01*
X87864398Y-237291637D01*
X87763389Y-237361947D01*
X87656378Y-237437697D01*
X87569028Y-237502549D01*
X87510398Y-237549565D01*
X87489540Y-237571717D01*
X86302889Y-237571717D01*
X86302889Y-236955459D01*
X86604016Y-236955459D01*
X86634390Y-236978289D01*
X86702432Y-237027082D01*
X86799416Y-237095651D01*
X86916618Y-237177809D01*
X86977360Y-237220163D01*
X87123632Y-237318991D01*
X87238432Y-237390269D01*
X87317596Y-237431598D01*
X87356963Y-237440578D01*
X87358360Y-237439758D01*
X87391743Y-237415599D01*
X87462166Y-237365644D01*
X87560391Y-237296414D01*
X87677183Y-237214430D01*
X87721056Y-237183706D01*
X87839137Y-237099757D01*
X87938518Y-237026606D01*
X88010986Y-236970494D01*
X88048324Y-236937666D01*
X88049785Y-236935371D01*
X90142287Y-236935371D01*
X90514065Y-237197855D01*
X90641287Y-237285378D01*
X90753528Y-237358268D01*
X90842401Y-237411417D01*
X90899518Y-237439720D01*
X90915644Y-237442373D01*
X90948372Y-237420281D01*
X91017976Y-237371832D01*
X91115351Y-237303407D01*
X91231395Y-237221389D01*
X91277056Y-237189006D01*
X91394889Y-237103986D01*
X91494114Y-237029774D01*
X91566571Y-236972678D01*
X91604102Y-236939005D01*
X91607508Y-236933524D01*
X91585603Y-236912580D01*
X91527057Y-236866440D01*
X91441584Y-236802116D01*
X91338895Y-236726621D01*
X91228705Y-236646965D01*
X91120727Y-236570161D01*
X91024673Y-236503219D01*
X90950256Y-236453153D01*
X90907191Y-236426972D01*
X90903536Y-236425344D01*
X90874080Y-236437923D01*
X90807008Y-236478055D01*
X90710597Y-236540437D01*
X90593128Y-236619766D01*
X90511842Y-236676197D01*
X90142287Y-236935371D01*
X88049785Y-236935371D01*
X88051591Y-236932535D01*
X88029414Y-236908326D01*
X87972200Y-236862923D01*
X87892168Y-236805999D01*
X87889313Y-236804059D01*
X87785102Y-236732854D01*
X87659861Y-236646578D01*
X87538765Y-236562578D01*
X87525918Y-236553622D01*
X87323725Y-236412571D01*
X86952156Y-236673446D01*
X86828593Y-236762398D01*
X86725348Y-236840965D01*
X86649605Y-236903328D01*
X86608551Y-236943665D01*
X86604016Y-236955459D01*
X86302889Y-236955459D01*
X86302889Y-236930342D01*
X86813947Y-236564627D01*
X87325006Y-236198911D01*
X87695892Y-236464983D01*
X88066778Y-236731054D01*
X88078048Y-236303417D01*
X89261277Y-236303417D01*
X89450588Y-236439098D01*
X89567457Y-236523431D01*
X89692312Y-236614417D01*
X89798238Y-236692442D01*
X89798783Y-236692846D01*
X89882993Y-236752120D01*
X89952528Y-236795119D01*
X89992655Y-236812753D01*
X89993172Y-236812791D01*
X90029164Y-236797889D01*
X90099850Y-236756023D01*
X90194586Y-236693849D01*
X90289506Y-236627541D01*
X90405046Y-236544421D01*
X90513291Y-236466145D01*
X90600237Y-236402862D01*
X90643374Y-236371100D01*
X90736414Y-236301784D01*
X90380644Y-236050226D01*
X90256362Y-235963433D01*
X90147705Y-235889597D01*
X90063206Y-235834356D01*
X90011396Y-235803349D01*
X90000000Y-235798667D01*
X89969475Y-235814192D01*
X89901620Y-235857014D01*
X89804953Y-235921504D01*
X89687989Y-236002031D01*
X89618201Y-236051042D01*
X89261277Y-236303417D01*
X88078048Y-236303417D01*
X88080889Y-236195643D01*
X88094792Y-235668109D01*
X88392814Y-235668109D01*
X88411930Y-235693929D01*
X88468898Y-235743305D01*
X88553993Y-235809428D01*
X88657489Y-235885484D01*
X88769660Y-235964663D01*
X88880780Y-236040151D01*
X88981123Y-236105139D01*
X89060964Y-236152813D01*
X89110577Y-236176361D01*
X89120022Y-236177431D01*
X89155256Y-236157830D01*
X89227475Y-236111584D01*
X89327620Y-236044693D01*
X89446632Y-235963159D01*
X89507661Y-235920678D01*
X89628547Y-235835474D01*
X89730504Y-235762404D01*
X89805742Y-235707147D01*
X89846473Y-235675383D01*
X89851417Y-235670024D01*
X89824047Y-235650213D01*
X89760343Y-235605186D01*
X89670320Y-235541940D01*
X89563994Y-235467474D01*
X89451380Y-235388783D01*
X89342495Y-235312865D01*
X89247354Y-235246718D01*
X89175972Y-235197338D01*
X89138365Y-235171722D01*
X89135873Y-235170124D01*
X89104789Y-235179584D01*
X89037968Y-235215709D01*
X88945266Y-235271892D01*
X88836542Y-235341528D01*
X88721653Y-235418010D01*
X88610457Y-235494731D01*
X88512812Y-235565086D01*
X88438576Y-235622466D01*
X88397606Y-235660267D01*
X88392814Y-235668109D01*
X88094792Y-235668109D01*
X88095000Y-235660233D01*
X89105930Y-234948845D01*
X89249576Y-235048542D01*
G37*
X89249576Y-235048542D02*
X89293306Y-235079237D01*
X89379589Y-235140122D01*
X89504943Y-235228730D01*
X89665883Y-235342593D01*
X89858925Y-235479245D01*
X90080585Y-235636217D01*
X90327380Y-235811044D01*
X90595826Y-236001258D01*
X90882438Y-236204391D01*
X91183733Y-236417976D01*
X91496227Y-236639546D01*
X91538111Y-236669247D01*
X93683000Y-238190255D01*
X93690318Y-239571294D01*
X93697637Y-240952334D01*
X92321541Y-241926586D01*
X92073432Y-242102179D01*
X91838684Y-242268194D01*
X91621404Y-242421735D01*
X91425698Y-242559905D01*
X91255675Y-242679807D01*
X91115442Y-242778545D01*
X91009106Y-242853221D01*
X90940775Y-242900940D01*
X90914746Y-242918699D01*
X90883703Y-242908379D01*
X90813833Y-242869554D01*
X90712159Y-242806636D01*
X90585707Y-242724035D01*
X90441501Y-242626164D01*
X90372083Y-242577891D01*
X89860119Y-242219223D01*
X89858889Y-241162919D01*
X89488099Y-241422960D01*
X89362296Y-241510797D01*
X89253585Y-241585958D01*
X89169930Y-241642996D01*
X89119296Y-241676465D01*
X89107877Y-241683000D01*
X89083780Y-241667171D01*
X89017596Y-241621553D01*
X88913321Y-241548949D01*
X88774952Y-241452163D01*
X88606484Y-241333998D01*
X88411916Y-241197256D01*
X88195242Y-241044742D01*
X87960459Y-240879259D01*
X87711565Y-240703610D01*
X87700667Y-240695914D01*
X86302889Y-239708829D01*
X86302889Y-239447892D01*
X90173832Y-239447892D01*
X90193399Y-239469369D01*
X90249457Y-239516505D01*
X90332525Y-239582208D01*
X90433120Y-239659387D01*
X90541762Y-239740951D01*
X90648968Y-239819809D01*
X90745258Y-239888870D01*
X90821149Y-239941044D01*
X90867161Y-239969238D01*
X90874889Y-239972196D01*
X90901646Y-239957343D01*
X90966060Y-239915335D01*
X91059816Y-239851771D01*
X91174601Y-239772249D01*
X91239121Y-239726955D01*
X91360794Y-239639488D01*
X91464159Y-239561978D01*
X91541180Y-239500707D01*
X91583819Y-239461957D01*
X91589737Y-239452909D01*
X91568539Y-239429701D01*
X91511085Y-239380925D01*
X91427027Y-239313854D01*
X91326015Y-239235762D01*
X91217699Y-239153925D01*
X91111730Y-239075615D01*
X91017758Y-239008108D01*
X90945435Y-238958676D01*
X90904410Y-238934595D01*
X90900538Y-238933421D01*
X90871499Y-238948044D01*
X90806847Y-238989292D01*
X90716359Y-239050242D01*
X90609816Y-239123972D01*
X90496995Y-239203559D01*
X90387675Y-239282078D01*
X90291636Y-239352609D01*
X90218656Y-239408227D01*
X90178514Y-239442010D01*
X90173832Y-239447892D01*
X86302889Y-239447892D01*
X86302889Y-238843208D01*
X91059465Y-238843208D01*
X91098962Y-238875611D01*
X91172134Y-238929432D01*
X91268789Y-238997755D01*
X91378737Y-239073666D01*
X91491785Y-239150248D01*
X91597742Y-239220587D01*
X91686418Y-239277766D01*
X91747620Y-239314871D01*
X91770166Y-239325467D01*
X91804259Y-239310325D01*
X91875339Y-239267949D01*
X91974517Y-239203989D01*
X92092903Y-239124096D01*
X92157148Y-239079500D01*
X92279110Y-238993179D01*
X92382782Y-238918133D01*
X92460189Y-238860267D01*
X92503358Y-238825487D01*
X92509630Y-238818445D01*
X92487331Y-238794160D01*
X92427044Y-238746658D01*
X92338684Y-238682577D01*
X92232166Y-238608555D01*
X92117405Y-238531229D01*
X92004317Y-238457238D01*
X91902816Y-238393218D01*
X91822817Y-238345807D01*
X91774235Y-238321643D01*
X91765259Y-238320125D01*
X91721526Y-238344421D01*
X91647446Y-238393176D01*
X91552308Y-238459506D01*
X91445404Y-238536524D01*
X91336025Y-238617345D01*
X91233461Y-238695083D01*
X91147003Y-238762853D01*
X91085941Y-238813769D01*
X91059566Y-238840946D01*
X91059465Y-238843208D01*
X86302889Y-238843208D01*
X86302889Y-238202146D01*
X88360860Y-238202146D01*
X88735831Y-238464533D01*
X89110803Y-238726921D01*
X89266124Y-238614856D01*
X89366585Y-238542865D01*
X89489146Y-238455736D01*
X89609630Y-238370648D01*
X89626056Y-238359104D01*
X89717050Y-238293469D01*
X89787064Y-238239660D01*
X89825627Y-238205878D01*
X89829933Y-238199431D01*
X89829237Y-238198503D01*
X91961445Y-238198503D01*
X91983065Y-238221434D01*
X92041394Y-238269243D01*
X92126636Y-238334822D01*
X92228995Y-238411061D01*
X92338675Y-238490853D01*
X92445879Y-238567086D01*
X92540811Y-238632654D01*
X92613676Y-238680445D01*
X92654676Y-238703352D01*
X92658497Y-238704350D01*
X92687173Y-238689347D01*
X92753596Y-238647127D01*
X92849502Y-238583167D01*
X92966626Y-238502940D01*
X93045911Y-238447686D01*
X93413606Y-238189816D01*
X93043336Y-237926124D01*
X92673067Y-237662432D01*
X92543033Y-237756898D01*
X92460092Y-237816829D01*
X92350173Y-237895820D01*
X92232294Y-237980214D01*
X92187222Y-238012390D01*
X92091174Y-238083291D01*
X92015442Y-238143757D01*
X91970013Y-238185558D01*
X91961445Y-238198503D01*
X89829237Y-238198503D01*
X89820850Y-238187336D01*
X89791189Y-238161732D01*
X89736439Y-238119249D01*
X89652092Y-238056515D01*
X89533639Y-237970161D01*
X89376571Y-237856814D01*
X89249978Y-237765880D01*
X89106733Y-237663111D01*
X88826644Y-237863288D01*
X88707731Y-237948522D01*
X88596562Y-238028643D01*
X88506307Y-238094136D01*
X88453708Y-238132806D01*
X88360860Y-238202146D01*
X86302889Y-238202146D01*
X86302889Y-237571717D01*
X87489540Y-237571717D01*
X87511611Y-237593393D01*
X87570403Y-237640142D01*
X87656192Y-237704959D01*
X87759256Y-237780839D01*
X87869871Y-237860777D01*
X87978316Y-237937766D01*
X88074868Y-238004802D01*
X88149803Y-238054879D01*
X88193400Y-238080992D01*
X88199386Y-238083169D01*
X88228060Y-238068267D01*
X88294478Y-238026135D01*
X88390377Y-237962243D01*
X88507493Y-237882059D01*
X88586800Y-237826797D01*
X88930095Y-237586039D01*
X89294954Y-237586039D01*
X89300485Y-237594392D01*
X89350172Y-237636362D01*
X89430735Y-237696685D01*
X89532147Y-237768658D01*
X89644382Y-237845579D01*
X89757415Y-237920745D01*
X89861218Y-237987453D01*
X89945767Y-238039002D01*
X90001034Y-238068688D01*
X90016524Y-238073079D01*
X90049259Y-238053400D01*
X90118902Y-238006772D01*
X90216593Y-237939280D01*
X90333468Y-237857006D01*
X90391575Y-237815626D01*
X90510842Y-237729600D01*
X90611100Y-237655779D01*
X90684617Y-237599977D01*
X90723660Y-237568008D01*
X90727829Y-237562769D01*
X90723901Y-237559909D01*
X91069327Y-237559909D01*
X91086631Y-237585398D01*
X91142064Y-237634274D01*
X91226000Y-237699834D01*
X91328814Y-237775376D01*
X91440878Y-237854197D01*
X91552567Y-237929595D01*
X91654255Y-237994866D01*
X91736315Y-238043310D01*
X91789122Y-238068222D01*
X91801560Y-238069754D01*
X91836920Y-238049198D01*
X91908772Y-238001678D01*
X92007962Y-237933434D01*
X92125338Y-237850709D01*
X92177808Y-237813182D01*
X92294776Y-237726805D01*
X92391045Y-237651158D01*
X92459227Y-237592417D01*
X92491935Y-237556760D01*
X92492915Y-237549699D01*
X92461425Y-237525949D01*
X92394264Y-237477293D01*
X92301932Y-237411288D01*
X92215445Y-237349973D01*
X92101620Y-237269256D01*
X91995837Y-237193700D01*
X91912197Y-237133404D01*
X91874214Y-237105566D01*
X91786983Y-237040597D01*
X91433652Y-237287465D01*
X91310334Y-237374744D01*
X91204290Y-237451917D01*
X91123846Y-237512758D01*
X91077323Y-237551045D01*
X91069327Y-237559909D01*
X90723901Y-237559909D01*
X90703274Y-237544893D01*
X90640818Y-237499922D01*
X90548466Y-237433607D01*
X90434223Y-237351698D01*
X90360437Y-237298847D01*
X90001208Y-237041628D01*
X89632700Y-237300069D01*
X89491699Y-237400270D01*
X89392696Y-237474297D01*
X89330419Y-237526820D01*
X89299596Y-237562510D01*
X89294954Y-237586039D01*
X88930095Y-237586039D01*
X88954495Y-237568927D01*
X88212829Y-237040741D01*
X88125692Y-237105990D01*
X88067365Y-237148366D01*
X87975839Y-237213376D01*
X87864398Y-237291637D01*
X87763389Y-237361947D01*
X87656378Y-237437697D01*
X87569028Y-237502549D01*
X87510398Y-237549565D01*
X87489540Y-237571717D01*
X86302889Y-237571717D01*
X86302889Y-236955459D01*
X86604016Y-236955459D01*
X86634390Y-236978289D01*
X86702432Y-237027082D01*
X86799416Y-237095651D01*
X86916618Y-237177809D01*
X86977360Y-237220163D01*
X87123632Y-237318991D01*
X87238432Y-237390269D01*
X87317596Y-237431598D01*
X87356963Y-237440578D01*
X87358360Y-237439758D01*
X87391743Y-237415599D01*
X87462166Y-237365644D01*
X87560391Y-237296414D01*
X87677183Y-237214430D01*
X87721056Y-237183706D01*
X87839137Y-237099757D01*
X87938518Y-237026606D01*
X88010986Y-236970494D01*
X88048324Y-236937666D01*
X88049785Y-236935371D01*
X90142287Y-236935371D01*
X90514065Y-237197855D01*
X90641287Y-237285378D01*
X90753528Y-237358268D01*
X90842401Y-237411417D01*
X90899518Y-237439720D01*
X90915644Y-237442373D01*
X90948372Y-237420281D01*
X91017976Y-237371832D01*
X91115351Y-237303407D01*
X91231395Y-237221389D01*
X91277056Y-237189006D01*
X91394889Y-237103986D01*
X91494114Y-237029774D01*
X91566571Y-236972678D01*
X91604102Y-236939005D01*
X91607508Y-236933524D01*
X91585603Y-236912580D01*
X91527057Y-236866440D01*
X91441584Y-236802116D01*
X91338895Y-236726621D01*
X91228705Y-236646965D01*
X91120727Y-236570161D01*
X91024673Y-236503219D01*
X90950256Y-236453153D01*
X90907191Y-236426972D01*
X90903536Y-236425344D01*
X90874080Y-236437923D01*
X90807008Y-236478055D01*
X90710597Y-236540437D01*
X90593128Y-236619766D01*
X90511842Y-236676197D01*
X90142287Y-236935371D01*
X88049785Y-236935371D01*
X88051591Y-236932535D01*
X88029414Y-236908326D01*
X87972200Y-236862923D01*
X87892168Y-236805999D01*
X87889313Y-236804059D01*
X87785102Y-236732854D01*
X87659861Y-236646578D01*
X87538765Y-236562578D01*
X87525918Y-236553622D01*
X87323725Y-236412571D01*
X86952156Y-236673446D01*
X86828593Y-236762398D01*
X86725348Y-236840965D01*
X86649605Y-236903328D01*
X86608551Y-236943665D01*
X86604016Y-236955459D01*
X86302889Y-236955459D01*
X86302889Y-236930342D01*
X86813947Y-236564627D01*
X87325006Y-236198911D01*
X87695892Y-236464983D01*
X88066778Y-236731054D01*
X88078048Y-236303417D01*
X89261277Y-236303417D01*
X89450588Y-236439098D01*
X89567457Y-236523431D01*
X89692312Y-236614417D01*
X89798238Y-236692442D01*
X89798783Y-236692846D01*
X89882993Y-236752120D01*
X89952528Y-236795119D01*
X89992655Y-236812753D01*
X89993172Y-236812791D01*
X90029164Y-236797889D01*
X90099850Y-236756023D01*
X90194586Y-236693849D01*
X90289506Y-236627541D01*
X90405046Y-236544421D01*
X90513291Y-236466145D01*
X90600237Y-236402862D01*
X90643374Y-236371100D01*
X90736414Y-236301784D01*
X90380644Y-236050226D01*
X90256362Y-235963433D01*
X90147705Y-235889597D01*
X90063206Y-235834356D01*
X90011396Y-235803349D01*
X90000000Y-235798667D01*
X89969475Y-235814192D01*
X89901620Y-235857014D01*
X89804953Y-235921504D01*
X89687989Y-236002031D01*
X89618201Y-236051042D01*
X89261277Y-236303417D01*
X88078048Y-236303417D01*
X88080889Y-236195643D01*
X88094792Y-235668109D01*
X88392814Y-235668109D01*
X88411930Y-235693929D01*
X88468898Y-235743305D01*
X88553993Y-235809428D01*
X88657489Y-235885484D01*
X88769660Y-235964663D01*
X88880780Y-236040151D01*
X88981123Y-236105139D01*
X89060964Y-236152813D01*
X89110577Y-236176361D01*
X89120022Y-236177431D01*
X89155256Y-236157830D01*
X89227475Y-236111584D01*
X89327620Y-236044693D01*
X89446632Y-235963159D01*
X89507661Y-235920678D01*
X89628547Y-235835474D01*
X89730504Y-235762404D01*
X89805742Y-235707147D01*
X89846473Y-235675383D01*
X89851417Y-235670024D01*
X89824047Y-235650213D01*
X89760343Y-235605186D01*
X89670320Y-235541940D01*
X89563994Y-235467474D01*
X89451380Y-235388783D01*
X89342495Y-235312865D01*
X89247354Y-235246718D01*
X89175972Y-235197338D01*
X89138365Y-235171722D01*
X89135873Y-235170124D01*
X89104789Y-235179584D01*
X89037968Y-235215709D01*
X88945266Y-235271892D01*
X88836542Y-235341528D01*
X88721653Y-235418010D01*
X88610457Y-235494731D01*
X88512812Y-235565086D01*
X88438576Y-235622466D01*
X88397606Y-235660267D01*
X88392814Y-235668109D01*
X88094792Y-235668109D01*
X88095000Y-235660233D01*
X89105930Y-234948845D01*
X89249576Y-235048542D01*
%TD*%
D11*
%TO.C,REF\u002A\u002A*%
X135600000Y-247000000D03*
X135600000Y-53000000D03*
%TD*%
%TO.C,REF\u002A\u002A*%
X44400000Y-53000000D03*
X44400000Y-247000000D03*
%TD*%
M02*
